<svg width="199" height="53" viewBox="0 0 199 53" fill="none" xmlns="http://www.w3.org/2000/svg">
<path d="M170.947 33.4465L167.508 28.9468L158.529 41.4522H166.193L171.364 33.987L170.947 33.4465Z" fill="white"/>
<path d="M199 0H191.717V16.3693H199V0Z" fill="url(#paint0_linear_91_2443)"/>
<path d="M199 7.28763V0.00012207L182.641 0.00012207V7.28763L199 7.28763Z" fill="url(#paint1_linear_91_2443)"/>
<path d="M176.955 27.2915L186.847 13.2313H179.185L173.26 22.0659L172.715 23.0338L165.694 13.2313H158.691L176.422 37.4596L177.384 38.7209L178.164 39.766L178.195 39.8072L179.345 41.4547H187.009L176.955 27.2915Z" fill="white"/>
<path d="M14.8025 31.5519C14.769 31.6935 14.679 32.0127 14.5452 32.5095L14.2262 33.4156L13.6396 31.5519L7.62476 13.1774H0.164062L10.7119 42.0443H17.4188L28.278 13.1774H20.9254L14.8025 31.5519Z" fill="white"/>
<path d="M56.1632 19.4069C54.6385 17.1759 52.7931 15.5696 50.6269 14.588C48.6619 13.6576 46.5207 13.1582 44.347 13.1233C41.4239 13.1311 38.5708 14.0192 36.1591 15.6721C33.7474 17.3249 31.8888 19.6659 30.8252 22.3904C30.2005 24.0227 29.8763 25.7548 29.8682 27.5027C29.8682 30.4166 30.7597 33.2606 32.4228 35.6526C33.9492 37.9247 35.7853 39.549 37.9308 40.5255C39.9035 41.4628 42.0554 41.9625 44.239 41.9902C46.6572 41.9987 49.0382 41.3938 51.1594 40.2321C53.2772 39.1038 55.0728 37.4542 56.3768 35.4389L50.5729 33.202C49.7915 34.0952 48.8178 34.7993 47.7249 35.2613C46.6243 35.7367 45.4378 35.9812 44.239 35.9795C43.2215 35.9881 42.2113 35.8074 41.2599 35.4467C40.1305 35.0273 39.1091 34.3607 38.2704 33.4954C37.4174 32.6252 36.7635 31.58 36.3538 30.4321L58.3989 29.8426V29.7886L58.5044 29.8426C58.6124 29.0838 58.6657 28.3181 58.6639 27.5516C58.6644 24.6474 57.7933 21.8099 56.1632 19.4069ZM36.3075 24.8925L36.4156 24.5733C37.0136 22.9568 38.1148 21.5752 39.5568 20.6322C40.9755 19.6859 42.6446 19.1856 44.3496 19.1958C45.4495 19.1895 46.5397 19.4002 47.5581 19.8159C48.5765 20.2315 49.5031 20.8439 50.2847 21.6181C51.1077 22.4348 51.7349 23.4276 52.119 24.5218L36.3075 24.8925Z" fill="white"/>
<path d="M69.6853 14.6678C67.4803 15.8834 65.6345 17.6592 64.3342 19.8162C63.0507 21.9258 62.3782 24.3508 62.3918 26.8205L62.4458 42.1087H68.6742L68.5662 27.7833C68.5449 26.2967 68.9522 24.8355 69.7393 23.5745C70.4752 22.3052 71.5296 21.2502 72.7982 20.5138C74.0608 19.7588 75.5053 19.3628 76.9762 19.3683C77.1537 19.3683 77.5627 19.4043 78.2008 19.4738V12.9096L76.8167 12.8041C74.3174 12.7892 71.8581 13.4319 69.6853 14.6678Z" fill="white"/>
<path d="M89.9657 3.00415H82.9912V41.8847H89.9657V17.8624H94.7045L96.3536 11.6843H89.9657V3.00415Z" fill="white"/>
<path d="M123.765 20.0606C122.464 17.9396 120.64 16.1882 118.468 14.974C116.29 13.7228 113.82 13.0701 111.309 13.082C108.788 13.0612 106.309 13.7192 104.131 14.9869C101.934 16.2621 100.108 18.0891 98.8337 20.2872C97.5496 22.471 96.8785 24.9612 96.8913 27.4949C96.8652 30.0293 97.5478 32.5205 98.862 34.6872C99.8599 36.4375 101.215 37.9581 102.839 39.15C104.462 40.3419 106.319 41.1784 108.287 41.6053C110.255 42.0321 112.291 42.0397 114.262 41.6274C116.234 41.2152 118.096 40.3924 119.729 39.2126V41.7688H125.69L125.744 27.0702C125.748 24.5951 125.063 22.1679 123.765 20.0606ZM118.602 31.7243C117.834 32.9879 116.765 34.0405 115.489 34.7876C114.225 35.5409 112.78 35.936 111.309 35.9305C109.824 35.9528 108.364 35.5461 107.105 34.7592C105.836 34.0229 104.78 32.968 104.043 31.6986C103.288 30.4344 102.893 28.9881 102.899 27.5155C102.877 26.0297 103.284 24.5692 104.072 23.3093C104.808 22.0392 105.862 20.9834 107.131 20.246C108.394 19.4922 109.838 19.0963 111.309 19.1005C112.786 19.0876 114.239 19.4745 115.515 20.2202C116.779 20.987 117.831 22.0577 118.576 23.335C119.322 24.6062 119.717 26.0524 119.721 27.5262C119.726 29 119.34 30.4486 118.602 31.7243Z" fill="white"/>
<path d="M148.704 34.453C147.3 35.4558 145.614 35.9876 143.888 35.9718C142.403 35.9946 140.942 35.5879 139.682 34.8005C138.413 34.0632 137.358 33.0074 136.621 31.7372C135.866 30.474 135.47 29.0285 135.476 27.5568C135.455 26.0702 135.862 24.609 136.649 23.348C137.386 22.0793 138.44 21.0244 139.708 20.2873C141.08 19.4822 142.654 19.0869 144.244 19.1481C145.833 19.2092 147.372 19.7242 148.679 20.6322C150.069 21.5848 151.133 22.9429 151.725 24.5218L158.007 24.5733C157.544 22.4439 156.616 20.4432 155.29 18.7144C153.927 16.9924 152.201 15.5923 150.235 14.6138C148.12 13.5655 145.78 13.056 143.421 13.1306C141.062 13.2051 138.758 13.8614 136.713 15.0411C134.511 16.3129 132.679 18.1393 131.401 20.3388C130.115 22.5221 129.443 25.0124 129.456 27.5465C129.429 30.0801 130.112 32.5706 131.426 34.7362C132.677 36.9379 134.489 38.7684 136.677 40.0409C138.866 41.3134 141.352 41.9825 143.883 41.9799C146.1 42.0008 148.29 41.4897 150.269 40.4895C152.222 39.5184 153.93 38.1182 155.267 36.3936C156.603 34.669 157.533 32.6646 157.987 30.53H151.758C151.166 32.1197 150.1 33.4891 148.704 34.453Z" fill="white"/>
<defs>
<linearGradient id="paint0_linear_91_2443" x1="195.357" y1="-13.9675" x2="195.357" y2="42.6208" gradientUnits="userSpaceOnUse">
<stop stop-color="#C753F6"/>
<stop offset="1" stop-color="#A136F8"/>
</linearGradient>
<linearGradient id="paint1_linear_91_2443" x1="190.819" y1="-13.9674" x2="190.819" y2="42.6209" gradientUnits="userSpaceOnUse">
<stop stop-color="#C753F6"/>
<stop offset="1" stop-color="#A136F8"/>
</linearGradient>
</defs>
</svg>
