<?xml version="1.0" encoding="UTF-8"?><svg id="Layer_2" xmlns="http://www.w3.org/2000/svg" viewBox="0 0 190.22 173.23"><defs><style>.cls-1,.cls-2,.cls-3{fill:none;stroke:#7dffaf;stroke-miterlimit:10;}.cls-2{stroke-linecap:round;}.cls-2,.cls-3{stroke-width:2.22px;}.cls-4{fill:#7dffaf;font-family:Poppins-Light, Poppins;font-size:22.78px;font-weight:300;}</style></defs><g id="Layer_1-2"><path class="cls-3" d="M179.58,1.11H10.64C5.37,1.11,1.11,5.38,1.11,10.64v117.75c0,5.26,4.26,9.53,9.53,9.53h168.94c5.26,0,9.53-4.27,9.53-9.53V10.64c0-5.26-4.27-9.53-9.53-9.53Z"/><line class="cls-2" x1="1.11" y1="118.86" x2="189.11" y2="118.86"/><path class="cls-3" d="M72.81,137.92l-12.15,24.75c-2.14,4.36,1.03,9.46,5.88,9.46h58.78c4.74,0,7.91-4.88,5.99-9.22l-11.05-24.98"/><path class="cls-1" d="M86.06,45.51c-1.49-.91-1.46-2.39-2.5-3.47-.96-.99-2.85-.5-3.95.03s-2.07,1.44-2.8,2.46c-1.68,2.34-2.27,5.43-1.59,8.22-2.23-.56-4.59,1.02-5.7,3.04s-.99,4.56-.03,6.66,2.67,3.76,4.59,5.04c-1.15,1.38-1.44,3.53-1,5.27.46,1.81,1.8,3.31,3.39,4.3s3.4,1.55,5.21,2.02"/><path class="cls-1" d="M88.21,71.96c-1.55.78-3.12,1.57-4.39,2.73s-2.25,2.78-2.26,4.51c0,2.28,1.71,4.33,3.81,5.22,2.38,1.01,5.27.72,7.4-.76s3.82-3.94,3.7-6.53"/><path class="cls-1" d="M81.98,41.36c.12-.72.52-2.41,1.94-3.94.59-.64,2.09-2.03,4.44-2.35.61-.08,2.35-.29,4.14.69,1.62.88,2.36,2.23,2.86,3.15.98,1.8,1.09,3.78,1.1,4.84"/><path class="cls-1" d="M106.96,45.51c1.49-.91,1.46-2.39,2.5-3.47.96-.99,2.85-.5,3.95.03s2.07,1.44,2.8,2.46c1.68,2.34,2.27,5.43,1.59,8.22,2.23-.56,4.59,1.02,5.7,3.04s.99,4.56.03,6.66-2.67,3.76-4.59,5.04c1.15,1.38,1.44,3.53,1,5.27-.46,1.81-1.8,3.31-3.39,4.3s-3.4,1.55-5.21,2.02"/><path class="cls-1" d="M104.81,71.96c1.55.78,3.12,1.57,4.39,2.73s2.25,2.78,2.26,4.51c0,2.28-1.71,4.33-3.81,5.22-2.38,1.01-5.27.72-7.4-.76s-3.9-3.94-3.78-6.53"/><path class="cls-1" d="M111.03,41.36c-.12-.72-.52-2.41-1.94-3.94-.59-.64-2.09-2.03-4.44-2.35-.61-.08-2.35-.29-4.14.69-1.62.88-2.36,2.23-2.86,3.15-.98,1.8-1.17,3.53-1.18,4.6"/><text class="cls-4" transform="translate(85.34 66.71)"><tspan x="0" y="0">AI</tspan></text><path class="cls-1" d="M94.23,14.9c0,1.12-.62,2.09-1.54,2.6v12.07c-.89-.85-2.79-1.38-2.79-1.38v-10.69c-.92-.5-1.55-1.48-1.55-2.6,0-1.62,1.32-2.94,2.94-2.94s2.94,1.32,2.94,2.94Z"/><path class="cls-1" d="M84.38,21.9h-6.56v.11c-.5-.9-1.45-1.52-2.56-1.52-1.62,0-2.94,1.32-2.94,2.94s1.32,2.94,2.94,2.94c1.16,0,2.15-.67,2.63-1.65h4.93v4.32s2.23-1.19,2.86-1.01v-4.84c0-.72-.58-1.3-1.3-1.3Z"/><path class="cls-1" d="M111.93,11.68c-1.15,0-2.14.67-2.62,1.63h-11.75v17.24c1.04-1.38,2.78-1.97,2.78-1.97v-12.49h9.05c.51.88,1.45,1.47,2.53,1.47,1.62,0,2.94-1.32,2.94-2.94s-1.32-2.94-2.94-2.94Z"/><path class="cls-1" d="M113.89,22.8c-1.09,0-2.03.6-2.54,1.48h-7.02v3.55c.81-.19,2.81.57,2.81.57v-1.31h4.15c.49.94,1.46,1.59,2.6,1.59,1.62,0,2.94-1.32,2.94-2.94s-1.32-2.94-2.94-2.94Z"/><path class="cls-1" d="M94.23,105.65c0,1.62-1.32,2.94-2.94,2.94s-2.94-1.32-2.94-2.94c0-1.12.63-2.1,1.55-2.59v-10.69s1.9-.53,2.79-1.38v12.07c.92.5,1.54,1.47,1.54,2.59Z"/><path class="cls-1" d="M84.38,98.65h-6.56v-.11c-.5.9-1.45,1.52-2.56,1.52-1.62,0-2.94-1.32-2.94-2.94s1.32-2.94,2.94-2.94c1.16,0,2.15.67,2.63,1.65h4.93v-4.32s2.23,1.19,2.86,1.01v4.84c0,.72-.58,1.3-1.3,1.3Z"/><path class="cls-1" d="M111.93,108.87c-1.15,0-2.14-.67-2.62-1.63h-11.75v-17.24c1.04,1.38,2.78,1.97,2.78,1.97v12.49h9.05c.51-.88,1.45-1.47,2.53-1.47,1.62,0,2.94,1.32,2.94,2.94s-1.32,2.94-2.94,2.94Z"/><path class="cls-1" d="M113.89,97.75c-1.09,0-2.03-.6-2.54-1.48h-7.02v-3.55c.81.19,2.81-.57,2.81-.57v1.31h4.15c.49-.94,1.46-1.59,2.6-1.59,1.62,0,2.94,1.32,2.94,2.94s-1.32,2.94-2.94,2.94Z"/><path class="cls-1" d="M146.54,53.47c0,1.62-1.31,2.94-2.94,2.94-1.11,0-2.09-.62-2.59-1.54h-12.07c.85-.89,1.38-2.8,1.38-2.8h10.69c.5-.92,1.48-1.54,2.59-1.54,1.63,0,2.94,1.32,2.94,2.94Z"/><path class="cls-1" d="M136.61,46.57v-4.37c0-1.2,0-2.18,0-2.18h-.11c.9-.5,1.52-1.45,1.52-2.56,0-1.62-1.32-2.94-2.94-2.94s-2.94,1.32-2.94,2.94c0,1.16.67,2.15,1.65,2.63v4.93s-4.32,0-4.32,0c0,0,1.19,2.23,1.01,2.86h4.84c.72,0,1.3-.58,1.3-1.3Z"/><path class="cls-1" d="M146.83,74.12c0-1.15-.67-2.14-1.63-2.62v-11.75s-17.24,0-17.24,0c1.38,1.04,1.97,2.78,1.97,2.78h12.49s0,9.05,0,9.05c-.88.51-1.47,1.45-1.47,2.53,0,1.62,1.32,2.94,2.94,2.94s2.94-1.32,2.94-2.94Z"/><path class="cls-1" d="M135.71,76.07c0-1.09-.6-2.03-1.48-2.54v-7.02h-3.55c.19.81-.57,2.81-.57,2.81h1.31s0,4.15,0,4.15c-.94.49-1.59,1.46-1.59,2.6,0,1.62,1.32,2.94,2.94,2.94s2.94-1.32,2.94-2.94Z"/><path class="cls-1" d="M63.23,54.87h-12.07c-.5.92-1.48,1.54-2.59,1.54-1.63,0-2.95-1.32-2.95-2.94s1.32-2.94,2.95-2.94c1.11,0,2.09.62,2.59,1.54h10.69s.53,1.91,1.38,2.8Z"/><path class="cls-1" d="M61.7,47.86h-4.84c-.72,0-1.3-.58-1.3-1.3v-6.55h.11c-.91-.51-1.53-1.46-1.53-2.56,0-1.63,1.32-2.94,2.95-2.94s2.94,1.31,2.94,2.94c0,1.15-.68,2.14-1.65,2.62v4.93h4.32s-1.19,2.23-1,2.86Z"/><path class="cls-1" d="M45.34,74.12c0-1.15.67-2.14,1.63-2.62v-11.75s17.24,0,17.24,0c-1.38,1.04-1.97,2.78-1.97,2.78h-12.49s0,9.05,0,9.05c.88.51,1.47,1.45,1.47,2.53,0,1.62-1.32,2.94-2.94,2.94s-2.94-1.32-2.94-2.94Z"/><path class="cls-1" d="M56.46,76.07c0-1.09.6-2.03,1.48-2.54v-7.02h3.55c-.19.81.57,2.81.57,2.81h-1.31s0,4.15,0,4.15c.94.49,1.59,1.46,1.59,2.6,0,1.62-1.32,2.94-2.94,2.94s-2.94-1.32-2.94-2.94Z"/></g></svg>