<?xml version="1.0" encoding="UTF-8"?><svg id="Layer_2" xmlns="http://www.w3.org/2000/svg" viewBox="0 0 190.22 173.22"><defs><style>.cls-1{stroke-width:2px;}.cls-1,.cls-2,.cls-3,.cls-4,.cls-5,.cls-6{fill:none;stroke:#7dffaf;stroke-miterlimit:10;}.cls-1,.cls-2,.cls-3,.cls-5,.cls-6{stroke-linecap:round;}.cls-2{stroke-width:1.39px;}.cls-3,.cls-4{stroke-width:2.22px;}.cls-7{stroke-width:0px;}.cls-7,.cls-8{fill:#7dffaf;}.cls-8{font-family:Poppins-Light, Poppins;font-size:25.65px;font-weight:300;}.cls-5{stroke-width:1.3px;}.cls-6{stroke-width:1.3px;}</style></defs><g id="Layer_1-2"><line class="cls-1" x1="26.54" y1="81.52" x2="59.16" y2="81.52"/><line class="cls-1" x1="26.54" y1="89.81" x2="52.25" y2="89.81"/><line class="cls-1" x1="26.54" y1="98.1" x2="45.06" y2="98.1"/><rect class="cls-4" x="1.11" y="1.11" width="188" height="136.81" rx="9.53" ry="9.53"/><polyline class="cls-3" points="26.74 20.28 16.76 33.79 26.74 48.09"/><polyline class="cls-3" points="59.57 19.47 69.55 32.98 59.57 47.27"/><line class="cls-3" x1="46.1" y1="18.45" x2="39.32" y2="47.27"/><line class="cls-3" x1="1.11" y1="118.86" x2="189.11" y2="118.86"/><path class="cls-4" d="M72.81,137.91l-12.15,24.75c-2.14,4.36,1.03,9.46,5.88,9.46h58.78c4.74,0,7.91-4.88,5.99-9.22l-11.05-24.98"/><path class="cls-5" d="M116.02,96.51v-61.38"/><path class="cls-6" d="M176.86,96.62v-61.49"/><ellipse class="cls-2" cx="146.44" cy="34.35" rx="30.42" ry="9.3"/><path class="cls-2" d="M176.86,96.8c0,5.14-13.62,9.3-30.42,9.3s-30.42-4.16-30.42-9.3"/><path class="cls-2" d="M176.86,75.51c0,5.14-13.62,9.3-30.42,9.3s-30.42-4.16-30.42-9.3"/><path class="cls-2" d="M176.86,54.21c0,5.14-13.62,9.3-30.42,9.3s-30.42-4.16-30.42-9.3"/><ellipse class="cls-7" cx="122.87" cy="50.21" rx="1.56" ry="2.13" transform="translate(66.3 170.28) rotate(-87)"/><ellipse class="cls-7" cx="122.81" cy="71.61" rx="1.56" ry="2.13" transform="translate(44.87 190.5) rotate(-87)"/><ellipse class="cls-7" cx="122.87" cy="93" rx="1.56" ry="2.13" transform="translate(23.56 210.84) rotate(-87)"/><text class="cls-8" transform="translate(73.67 96.59)"><tspan x="0" y="0">DB</tspan></text></g></svg>