<svg width="190" height="176" viewBox="0 0 190 176" fill="none" xmlns="http://www.w3.org/2000/svg">
<path d="M93.8068 111.484C93.1492 111.608 92.7712 111.645 92.4195 111.749C89.706 112.562 86.9991 113.393 84.2878 114.207C83.5625 114.425 82.848 114.644 82.1817 114.02C81.5022 113.383 81.8846 112.783 82.162 112.171C83.5909 109.013 86.241 106.771 89.3695 104.891C90.7678 104.05 92.1791 103.226 93.514 102.25C92.4151 102.65 91.2746 102.98 90.226 103.465C88.1745 104.408 86.2038 105.49 84.1392 106.411C83.0556 106.893 81.8736 107.299 80.6829 107.488C78.5353 107.827 77.2463 106.601 77.6418 104.731C77.976 103.158 78.9548 101.876 80.1215 100.681C83.4357 97.2906 87.8599 95.3228 92.3211 93.4066C93.7871 92.7773 95.2946 92.2225 96.754 91.5837C97.1713 91.4007 97.4903 91.0422 97.8529 90.7657C97.7874 90.6609 97.7219 90.556 97.6563 90.4492C95.299 90.7162 92.9351 90.9431 90.5886 91.2596C85.8761 91.8983 81.6748 93.6811 77.6112 95.7614C76.9492 96.1008 76.3069 96.7281 75.4526 96.1866C74.6508 95.6794 74.4433 94.9148 74.4935 94.0796C74.8125 88.8151 72.9598 84.1665 68.8634 80.3378C65.9009 77.5673 62.6806 74.9989 59.4624 72.4477C54.2627 68.3234 50.3848 63.5413 49.3689 57.3368C48.3005 50.8177 49.7752 44.7027 53.7908 39.1255C59.2898 31.4852 67.4521 27.6527 77.5915 26.8633C86.9882 26.1311 95.5524 28.2514 103.079 33.167C109.216 37.1769 113.282 42.4509 114.579 49.1779C115.416 53.5157 114.551 57.6743 112.486 61.5945C110.339 65.675 107.859 69.62 105.55 73.6356C103.634 76.9686 102.026 80.4045 101.737 84.1722C101.617 85.7415 101.626 87.3565 101.917 88.9009C102.264 90.7371 101.445 91.9765 99.7777 92.785C96.9616 94.1521 94.0558 95.3819 91.1785 96.6537C88.1876 97.9751 85.3583 99.5005 82.966 101.577C82.221 102.223 81.5284 102.917 80.8446 103.615C80.6349 103.829 80.5366 104.122 80.2941 104.542C81.8627 104.542 83.0753 104.203 84.196 103.596C87.9101 101.586 91.7749 99.8265 95.9391 98.6577C97.9687 98.0876 100.101 97.8016 102.187 97.3897C102.924 97.2448 103.439 97.4641 103.793 98.0628C104.141 98.6501 103.992 99.1535 103.437 99.4948C101.132 100.913 98.8514 102.368 96.4613 103.667C93.4791 105.287 90.3833 106.758 87.8599 108.939C87.2591 109.457 86.7675 110.073 86.2257 110.643C86.2912 110.72 86.3568 110.798 86.4223 110.874C86.7893 110.796 87.1651 110.743 87.5191 110.634C90.9775 109.564 94.4294 108.483 97.8857 107.41C98.5892 107.19 99.3539 106.771 99.9459 107.518C100.531 108.254 100.271 108.893 99.5986 109.559C97.6323 111.502 95.6573 113.446 93.8417 115.494C91.4123 118.234 90.4881 121.279 91.8449 124.694C91.9694 125.011 91.7334 125.722 91.4713 125.808C90.9382 125.985 90.2238 125.983 89.6841 125.813C89.3455 125.709 89.1117 125.186 88.961 124.811C87.6632 121.565 88.4629 118.551 90.4357 115.719C91.2615 114.535 92.2709 113.45 93.1929 112.318C93.3502 112.123 93.4878 111.917 93.8024 111.482L93.8068 111.484ZM98.9257 87.8541C98.9257 86.508 98.7967 85.1694 98.9497 83.8576C99.3757 80.2215 100.844 76.8523 102.67 73.5936C104.98 69.4732 107.44 65.4118 109.611 61.2361C111.851 56.9326 112.698 52.4136 111.339 47.723C109.788 42.3689 106.118 38.2961 101.073 35.1424C93.597 30.467 85.2403 28.3563 76.095 29.5385C62.6085 31.2812 53.0633 40.7711 52.0037 50.8634C51.381 56.801 52.6941 62.3019 57.3847 66.7675C60.415 69.6524 63.8931 72.1922 67.2751 74.7815C72.3175 78.6446 75.9136 83.2246 77.0475 89.0935C77.2791 90.291 77.3643 91.5113 77.5325 92.8517C78.6205 92.3731 79.5818 91.8678 80.613 91.5246C81.511 91.2253 81.7207 90.76 81.5853 89.9954C80.9233 86.2792 80.3858 82.542 79.6233 78.841C78.6577 74.1542 77.1502 69.6028 74.5307 65.3756C74.0653 64.6263 73.6961 64.3765 72.7151 64.7845C70.7445 65.6025 68.6253 65.8389 66.4471 65.6521C64.0744 65.4481 62.3813 63.957 62.0033 61.7223C61.6865 59.8442 62.8685 58.0652 64.9178 57.2758C67.026 56.4635 69.0753 56.637 70.9193 57.7467C72.0969 58.456 73.0538 59.4418 74.1505 60.2636C74.4193 60.4658 74.9851 60.7041 75.173 60.5992C76.1321 60.0596 77.0126 59.4113 77.893 58.8202C77.1021 57.8802 76.32 57.1194 75.7563 56.25C73.7267 53.1134 75.5859 49.0616 79.3546 48.2874C82.54 47.6334 85.2535 49.4887 84.9716 52.2992C84.8449 53.5576 84.2266 54.7856 83.7547 56.004C83.5297 56.5855 83.1255 57.1156 82.7082 57.8306C83.9229 58.1147 84.9804 58.4236 86.064 58.6048C88.0565 58.9384 88.2291 58.8202 88.8823 57.1271C88.9741 56.8868 89.1008 56.658 89.1948 56.4197C90.3483 53.5195 92.5178 51.689 96.1598 51.5022C98.1326 51.4011 100.23 51.9083 101.163 53.5634C101.989 55.0296 101.648 56.5322 100.068 57.9603C97.842 59.9738 95.1089 61.013 91.9148 61.0721C90.9972 61.0893 90.5668 61.3143 90.4248 62.1704C89.907 65.2536 89.5618 68.3387 90.014 71.4448C90.7984 76.8389 91.6264 82.2293 92.4653 87.6196C92.4959 87.8179 92.8389 88.1402 93.0268 88.1344C94.9079 88.0791 96.7846 87.9647 98.9278 87.856L98.9257 87.8541ZM87.353 61.3066C86.1011 61.135 84.6221 61.1465 83.3418 60.7098C81.2925 60.0119 79.6976 60.1893 78.389 61.7757C78.3081 61.8748 78.1639 61.9339 78.0481 62.0121C76.4336 63.1104 76.4511 63.1047 77.3534 64.7235C80.9342 71.1435 82.5094 78.0421 83.687 85.0322C83.9579 86.6453 84.2157 88.2603 84.4953 89.9649C86.1645 89.5397 87.7222 89.1622 89.2559 88.7255C89.4351 88.674 89.6164 88.2736 89.5815 88.0601C89.2363 85.8368 88.7928 83.6269 88.4847 81.3998C87.9626 77.6054 87.3443 73.8129 87.0974 70.0014C86.9117 67.1451 87.2438 64.2621 87.3486 61.3066H87.353ZM72.0248 62.2486C70.8537 61.0092 70.0694 59.867 68.5401 59.4628C67.5984 59.213 66.6656 59.2264 65.9337 59.9281C65.287 60.5477 65.1035 61.3047 65.5208 62.035C65.997 62.8701 66.9605 63.2992 67.9611 63.179C69.2567 63.0227 70.5129 62.6089 72.0248 62.2486ZM91.4516 58.2654C91.5215 58.3569 91.5892 58.4484 91.6592 58.5399C92.5855 58.4637 93.5118 58.3874 94.4382 58.3111C96.0877 58.1758 97.156 57.3082 97.794 56.0803C98.0037 55.676 97.9425 54.94 97.6388 54.6235C97.3395 54.3108 96.4678 54.103 96.0374 54.2555C93.8723 55.0277 92.5746 56.5874 91.4538 58.2654H91.4516ZM82.0288 53.3632C81.9414 53.3212 81.8518 53.2812 81.7644 53.2392C81.6879 52.8979 81.6486 52.549 81.5306 52.2191C81.1243 51.0846 80.3836 50.8768 79.2323 51.5384C78.3169 52.0666 77.5194 52.7053 77.6287 53.7388C77.7532 54.9019 78.6773 55.6512 79.7369 56.2538C79.8724 56.33 80.2941 56.2652 80.3618 56.1584C80.9451 55.2394 81.4804 54.2975 82.0288 53.3632Z" fill="#F1FAF0"/>
<path d="M26.6746 168.656C32.7547 164.469 39.7154 162.648 46.724 160.989C57.4272 158.455 68.3488 156.884 79.3271 155.586C87.0699 154.67 94.8105 153.866 102.647 154.094C105.841 154.188 109.038 154.23 112.234 154.287C112.839 154.298 113.457 154.447 113.318 155.036C113.25 155.326 112.564 155.708 112.16 155.706C108.164 155.698 104.166 155.648 100.17 155.551C94.4063 155.412 88.7041 155.978 83.0063 156.594C79.4473 156.979 75.8971 157.443 72.3621 158.064C73.295 157.99 74.2257 157.914 75.1586 157.843C79.9345 157.483 84.706 157.046 89.4884 156.785C95.3611 156.465 101.242 156.23 107.124 156.085C109.252 156.032 111.397 156.297 113.519 156.522C114.019 156.575 114.462 157.052 114.93 157.334C114.871 157.427 114.81 157.521 114.751 157.614C114.886 157.643 115.044 157.641 115.153 157.704C115.507 157.91 115.843 158.139 116.186 158.358C115.819 158.598 115.465 158.857 115.076 159.067C114.943 159.138 114.72 159.082 114.539 159.082C108.612 159.113 102.682 159.044 96.7615 159.197C84.4176 159.515 72.1131 160.249 60.0074 162.589C52.6753 164.006 45.553 165.954 38.8546 168.967C35.4026 170.519 32.1015 172.285 29.1106 174.462C28.9445 174.582 28.7413 174.664 28.5709 174.781C28.1274 175.078 27.5812 175.465 27.2186 174.874C27.0656 174.626 27.3715 173.947 27.6992 173.726C29.5038 172.512 31.3456 171.335 33.2397 170.229C35.0072 169.196 36.8555 168.265 38.8152 167.211C38.5028 167.259 38.3149 167.251 38.1642 167.314C34.7953 168.717 31.4089 170.094 28.4748 172.161C28.016 172.483 27.4064 172.84 27.0132 172.218C26.8755 172.001 27.236 171.352 27.5703 171.125C31.9617 168.143 36.9036 166.036 42.0661 164.292C44.0193 163.632 45.9769 162.984 47.9235 162.261C47.6351 162.311 47.338 162.333 47.0627 162.414C42.798 163.645 38.4941 164.787 34.2862 166.155C31.5968 167.028 29.1542 168.364 27.177 170.256C26.349 171.047 25.8247 170.916 25.4795 169.884C23.8955 165.134 22.3378 160.379 20.7189 155.639C15.8709 141.449 10.8591 127.305 5.08918 113.374C4.34854 111.586 3.93344 109.648 2.88694 108.014C1.6744 106.117 1.04301 104.107 0.426909 102.069C-0.287506 99.7105 -0.261289 99.659 2.27084 98.7285C12.773 94.8731 23.4804 91.582 34.7407 89.8316C42.2103 88.6704 49.7434 88.1594 57.2983 88.8173C61.7617 89.2062 66.1749 90.0509 70.61 90.6954C70.7869 90.7221 71.0142 90.7393 71.1212 90.8384C71.4052 91.1092 71.6346 91.4219 71.8859 91.7174C71.4926 91.8566 71.0644 92.1617 70.7105 92.1064C68.3881 91.7441 66.0941 91.2484 63.7695 90.8975C57.3682 89.9327 50.921 89.7687 44.4497 90.1558C31.1664 90.9509 18.6696 94.4097 6.41751 98.6999C4.90784 99.228 3.4091 99.7772 1.61105 100.422C10.7958 122.936 19.3054 145.564 26.6789 168.652L26.6746 168.656Z" fill="#F1FAF0"/>
<path d="M116.054 152.251C119.466 149.888 123.091 148.052 126.872 146.443C134.74 143.095 142.968 140.572 151.442 138.736C157.706 137.38 164.05 136.259 170.415 135.319C175.885 134.51 181.437 134.137 187.01 134.463C187.187 134.472 187.366 134.438 187.716 134.409C187.558 134.043 187.467 133.723 187.292 133.441C182.896 126.359 179.154 119.009 175.538 111.607C169.943 100.153 164.756 88.5428 158.344 77.4017C157.116 75.268 157.123 75.3176 154.414 75.5178C148.665 75.943 142.909 76.2958 137.16 76.7095C130.825 77.1672 124.495 77.661 118.525 79.8251C114.094 81.4306 110.166 83.7187 106.491 86.371C106.128 86.6322 105.796 86.9621 105.379 87.1222C105.058 87.2462 104.627 87.1566 104.245 87.1623C104.291 86.8362 104.197 86.371 104.407 86.2051C105.648 85.2384 106.93 84.306 108.254 83.427C113.74 79.7813 119.805 77.2263 126.663 76.3148C130.171 75.8477 133.715 75.5426 137.252 75.2585C140.973 74.9592 144.707 74.7856 148.434 74.5301C151.364 74.328 154.287 74.0573 157.219 73.8895C157.584 73.8685 158.171 74.2117 158.335 74.5168C161.896 81.1389 165.556 87.7248 168.903 94.4289C174.603 105.843 179.72 117.479 186.138 128.617C187.312 130.653 188.594 132.64 189.791 134.667C189.949 134.934 190.053 135.387 189.898 135.592C189.734 135.809 189.234 135.927 188.88 135.929C185.8 135.95 182.7 135.748 179.639 135.971C174.764 136.328 169.884 136.797 165.064 137.514C156.458 138.795 148.034 140.764 139.795 143.297C133.245 145.308 126.811 147.566 120.954 150.88C119.138 151.907 117.487 153.153 115.743 154.279C115.512 154.43 115.101 154.594 114.911 154.512C114.653 154.4 114.334 154.03 114.374 153.816C114.664 152.213 113.685 150.927 112.999 149.596C109.565 142.953 105.973 136.371 102.635 129.694C100.575 125.572 98.8727 121.314 96.9981 117.119C96.7819 116.637 96.6333 116.12 97.28 115.891C98.0425 115.62 98.274 116.223 98.4816 116.692C100.129 120.418 101.632 124.199 103.437 127.865C105.783 132.638 108.381 137.317 110.836 142.052C112.425 145.112 113.95 148.195 115.507 151.267C115.663 151.574 115.844 151.871 116.056 152.253L116.054 152.251Z" fill="#F1FAF0"/>
<path d="M187.343 139.447C187.813 139.476 188.204 139.422 188.508 139.541C188.849 139.674 189.111 139.962 189.408 140.183C189.084 140.416 188.776 140.831 188.438 140.85C186.373 140.972 184.304 141.007 182.235 141.068C174.558 141.297 166.988 142.239 159.507 143.739C151.192 145.408 143.178 147.818 135.582 151.235C130.83 153.372 126.371 155.893 122.244 158.863C121.949 159.075 121.235 159.17 120.957 159.006C120.302 158.619 120.839 158.215 121.228 157.958C123.411 156.503 125.526 154.947 127.837 153.662C131.468 151.644 135.235 149.818 139.032 147.966C138.8 148.027 138.551 148.06 138.339 148.153C135.39 149.448 132.449 150.758 129.495 152.047C126.002 153.57 122.963 155.656 119.97 157.811C119.673 158.024 118.949 158.152 118.709 157.992C118.062 157.561 118.615 157.159 119.013 156.842C122.002 154.472 125.316 152.495 128.807 150.737C137.915 146.155 147.71 143.131 157.893 140.995C167.243 139.035 176.717 137.916 186.347 137.906C187.73 137.906 187.977 138.242 187.345 139.443L187.343 139.447Z" fill="#F1FAF0"/>
<path d="M160.411 98.921C160.326 99.6417 159.791 99.8343 159.046 99.8553C156.433 99.9315 153.82 99.9964 151.211 100.126C144.15 100.479 137.229 101.545 130.476 103.377C123.83 105.181 117.465 107.526 111.744 111.048C109.948 112.154 108.086 113.195 107.132 115.075C106.896 115.542 106.277 115.958 105.722 116.169C105.375 116.301 104.713 116.11 104.385 115.866C104.152 115.693 104.11 115.155 104.217 114.842C104.346 114.47 104.682 114.129 105.006 113.839C110.444 108.958 117.136 105.831 124.291 103.352C131.695 100.786 139.396 99.2432 147.298 98.5358C151.154 98.1907 155.05 98.1621 158.928 97.9924C159.697 97.9581 160.308 98.124 160.409 98.921H160.411Z" fill="#F1FAF0"/>
<path d="M154.948 107.812C157.6 107.994 160.2 108.169 162.8 108.348C163.543 108.4 164.102 108.657 163.982 109.401C163.866 110.131 163.28 110.232 162.524 110.161C153.134 109.286 143.91 110.015 134.846 112.333C127.09 114.316 119.898 117.308 113.28 121.362C112.911 121.589 112.36 121.707 111.917 121.672C111.727 121.657 111.399 121.079 111.471 120.832C111.576 120.477 111.917 120.092 112.284 119.893C115.233 118.296 118.13 116.602 121.198 115.193C128.94 111.632 137.21 109.429 145.883 108.449C148.898 108.108 151.95 108.016 154.948 107.812Z" fill="#F1FAF0"/>
<path d="M159.29 88.6993C157.223 88.6345 155.157 88.5487 153.09 88.5068C144.856 88.3428 136.905 89.6947 129.154 92.0228C122.114 94.1374 115.538 97.047 109.482 100.843C109.052 101.112 108.464 101.753 107.94 100.998C107.538 100.416 107.8 99.9071 108.486 99.4743C117.998 93.4833 128.538 89.5841 140.036 87.6278C144.36 86.8918 148.729 86.5352 153.129 86.579C155.266 86.6 157.4 86.8059 159.535 86.9413C160.258 86.9871 160.638 87.4199 160.468 87.9729C160.352 88.3504 159.858 88.6402 159.533 88.9682C159.452 88.8786 159.371 88.787 159.29 88.6974V88.6993Z" fill="#F1FAF0"/>
<path d="M162.6 119.802C163.218 119.802 163.836 119.823 164.455 119.796C165.154 119.765 165.72 120.019 165.591 120.618C165.51 120.999 164.977 121.462 164.533 121.59C163.941 121.76 163.24 121.632 162.587 121.647C154.285 121.848 146.306 123.27 138.814 126.496C137.809 126.929 136.874 127.494 135.854 127.89C135.489 128.031 134.965 127.862 134.513 127.833C134.583 127.406 134.502 126.878 134.764 126.574C135.089 126.195 135.682 125.976 136.186 125.732C141.576 123.123 147.328 121.411 153.406 120.585C156.448 120.174 159.522 119.949 162.58 119.64C162.587 119.693 162.593 119.748 162.602 119.802H162.6Z" fill="#F1FAF0"/>
<path d="M40.4813 34.2675C40.5272 35.4898 39.3081 36.1361 38.2922 35.6328C34.6392 33.8175 31.0038 31.9775 27.364 30.1452C26.5491 29.7352 25.7211 29.3386 24.9258 28.9001C24.2223 28.5149 23.7613 28.0134 24.2464 27.2431C24.7052 26.5147 25.4327 26.3546 26.3612 26.8179C30.7635 29.0183 35.1614 31.2244 39.5418 33.4553C39.97 33.6726 40.2694 34.0788 40.4813 34.2656V34.2675Z" fill="#F1FAF0"/>
<path d="M72.2051 13.1693C71.7092 13.503 71.2679 13.9835 70.7064 14.1361C70.0204 14.3229 69.4414 13.9626 69.2579 13.2971C68.2529 9.66286 67.237 6.03052 66.2626 2.38865C66.0528 1.60498 66.5837 0.983386 67.4445 0.844194C68.2944 0.706909 68.7685 1.10542 68.952 1.76324C69.9657 5.39558 70.9576 9.03173 71.9561 12.6679C71.9823 12.7594 71.9954 12.8547 72.015 12.9463C72.0784 13.0206 72.1396 13.095 72.2029 13.1693H72.2051Z" fill="#F1FAF0"/>
<path d="M109.299 18.4626C109.635 17.9554 109.799 17.5111 110.138 17.2289C113.135 14.7464 116.146 12.2752 119.215 9.85939C119.552 9.59436 120.332 9.54097 120.806 9.67063C121.826 9.94901 121.951 10.8909 121.151 11.5202C118.835 13.3411 116.502 15.1449 114.217 16.9944C113.369 17.6808 112.681 18.516 111.829 19.1986C111.519 19.4465 110.861 19.6295 110.511 19.5113C110.053 19.3549 109.742 18.8706 109.301 18.4626H109.299Z" fill="#F1FAF0"/>
<path d="M92.7845 15.1695C91.513 15.1981 90.6894 14.4374 90.9581 13.6709C92.0352 10.5934 93.1647 7.52734 94.3357 4.47466C94.6394 3.68527 95.6356 3.34587 96.3566 3.6662C97.2043 4.04373 97.1934 4.60813 96.9094 5.34794C95.7973 8.2519 94.7858 11.1864 93.6737 14.0903C93.4968 14.5537 92.9943 14.9217 92.7823 15.1695H92.7845Z" fill="#F1FAF0"/>
<path d="M51.7722 22.7659C51.3243 22.4799 50.8677 22.3063 50.6143 22.0051C48.5213 19.5168 46.4676 17.0037 44.3965 14.504C43.9311 13.9434 43.9748 13.4705 44.5997 13.0243C45.266 12.5496 45.9739 12.4828 46.5244 13.0606C47.4464 14.0273 48.281 15.0588 49.1286 16.0789C50.422 17.6329 51.722 19.185 52.952 20.7771C53.1879 21.0822 53.3081 21.6695 53.1267 21.9479C52.8973 22.2987 52.3009 22.4684 51.7722 22.7678V22.7659Z" fill="#F1FAF0"/>
<path d="M162.168 128.125C159.201 128.083 156.47 128.955 153.713 129.754C153.365 129.855 152.688 129.748 152.533 129.533C152.34 129.266 152.5 128.781 152.574 128.402C152.596 128.293 152.832 128.188 152.994 128.133C156.328 127.007 159.701 126.057 163.356 126.281C164.116 126.326 164.669 126.563 164.645 127.274C164.621 128.024 163.992 128.167 163.258 128.127C162.895 128.108 162.532 128.123 162.168 128.123V128.125Z" fill="#F1FAF0"/>
</svg>
