<svg width="74" height="68" viewBox="0 0 74 68" fill="none" xmlns="http://www.w3.org/2000/svg">
<g clip-path="url(#clip0_86_587)">
<path d="M1.57177 30.5505C2.70068 30.4173 3.8276 30.2682 4.96048 30.1588C5.55172 30.1012 6.15684 30.1588 6.74213 30.0733C7.06553 30.0256 7.36115 29.791 7.66867 29.6399C7.50598 29.3099 7.4286 28.8625 7.16473 28.6677C6.08145 27.8645 4.88112 27.2143 3.84149 26.3654C2.73044 25.4568 1.56582 24.5183 0.756341 23.3612C-0.965789 20.9018 0.436913 18.51 3.18081 17.7963C4.11132 17.5537 5.14103 17.6014 6.11716 17.6531C6.758 17.6869 7.11513 17.6531 7.16076 16.8976C7.33138 13.965 7.58137 11.0364 7.72025 8.10187C7.82541 5.88703 7.78573 3.66423 7.86707 1.44939C7.87699 1.18098 8.20039 0.747559 8.44244 0.693878C9.69237 0.423484 10.9641 0.0835039 12.2279 0.073563C21.3862 0.00795275 30.5464 0 39.7066 0C44.998 0 50.2894 0.0695866 55.5788 0.0695866C56.4657 0.0695866 56.9517 0.336004 57.0331 1.25653C57.2751 4.02409 57.6799 6.78767 57.7592 9.55921C57.9279 15.4562 57.9219 21.3571 58.0191 27.2561C58.0271 27.6955 58.2076 28.4589 58.4318 28.5106C59.1084 28.6617 59.8544 28.5822 60.5567 28.4768C60.6916 28.4569 60.8285 27.9122 60.8265 27.612C60.8027 24.2042 60.6618 20.7945 60.7333 17.3887C60.7948 14.4183 61.0884 11.45 61.2809 8.48161C61.2848 8.416 61.2828 8.34443 61.3106 8.28677C61.5646 7.72809 61.4297 6.84334 62.3741 6.83738C63.2827 6.83141 63.505 7.5571 63.5982 8.25893C63.999 11.2392 64.487 14.2175 64.7073 17.2117C64.9533 20.5758 64.9513 23.9597 65.0446 27.3336C65.0763 28.5206 65.1299 28.5802 66.4949 28.5345C67.7012 28.4947 67.7984 28.3675 67.7785 27.2183C67.717 23.6734 67.6456 20.1284 67.6516 16.5835C67.6516 15.6013 67.844 14.6052 68.0722 13.6449C68.1773 13.2016 68.5087 12.7244 68.8777 12.46C69.2427 12.1955 69.7864 12.1796 70.2506 12.0544C70.3399 12.45 70.5085 12.8457 70.5066 13.2413C70.4847 17.6173 70.449 21.9914 70.3915 26.3654C70.3637 28.4112 70.3379 28.4072 72.3239 28.3794C72.6533 28.3754 73.0223 28.3217 73.3001 28.451C73.5937 28.5882 74.0461 29.0116 73.9965 29.1389C73.8635 29.4729 73.5362 29.8825 73.2148 29.956C72.6156 30.0952 71.9648 30.0535 71.3399 30.0216C70.6216 29.9859 70.3518 30.2463 70.3459 30.9959C70.2863 38.5192 70.207 46.0425 70.1078 53.5658C70.0562 57.4427 69.959 61.3197 69.8737 65.1967C69.8657 65.5267 69.828 65.8587 69.7745 66.1848C69.5681 67.4135 69.1217 67.8449 67.9015 67.9583C67.4095 68.004 66.9095 68.008 66.4155 68C53.3547 67.7952 40.2959 67.5865 27.2351 67.3717C26.4752 67.3598 25.7153 67.3041 24.9574 67.2485C24.4198 67.2087 24.1817 66.8827 24.5586 66.4671C24.9296 66.0575 25.4177 65.5923 25.9197 65.4989C26.8502 65.3239 27.8263 65.3736 28.7846 65.3756C40.6887 65.4213 52.5928 65.481 64.497 65.5267C66.6139 65.5347 66.6615 65.5028 66.2469 63.453C65.3799 59.1645 65.6318 54.8979 66.3123 50.6153C66.8877 46.9888 67.5127 43.3604 67.842 39.7081C68.1019 36.8471 67.9452 33.9483 67.971 31.0654C67.9769 30.5048 67.719 30.1906 67.1357 30.1966C66.8044 30.2006 66.4731 30.2304 66.1437 30.2085C65.368 30.1549 65.1576 30.5087 65.118 31.2682C64.7787 37.7537 64.3224 44.2332 64.0466 50.7207C63.9176 53.7606 64.1081 56.8145 64.1597 59.8604C64.1855 61.4112 64.1795 61.5066 62.6022 61.5841C56.5946 61.8804 50.587 62.1786 44.5774 62.3635C38.8297 62.5405 33.076 62.62 27.3244 62.6597C24.2511 62.6816 21.1779 62.5385 18.1066 62.4351C17.813 62.4251 17.5273 62.1786 17.2376 62.0414C17.5114 61.8148 17.7693 61.4131 18.059 61.3873C20.3624 61.1825 22.6698 60.9757 24.9812 60.9081C30.1694 60.757 35.3596 60.6775 40.5498 60.5821C46.5674 60.4707 52.5849 60.3753 58.6024 60.2699C59.9992 60.2461 60.1321 60.1487 60.275 58.7748C60.6817 54.8561 61.1678 50.9433 61.4257 47.0147C61.5705 44.8118 61.3225 42.583 61.2571 40.3662C61.1698 37.4535 61.0408 34.5388 61.0249 31.6261C61.021 30.6738 60.765 30.2602 59.8028 30.3795C59.5429 30.4113 59.2711 30.4153 59.0111 30.3835C58.2473 30.29 58.0251 30.6777 58.031 31.3716C58.041 32.7296 57.9715 34.0915 58.0052 35.4474C58.1124 39.5212 58.0767 43.6109 58.4437 47.6628C58.6838 50.3171 58.8346 52.9335 58.5945 55.5818C58.4378 57.3095 58.1064 57.7648 56.3784 57.8602C51.5334 58.1306 46.6844 58.3613 41.8335 58.5521C35.7227 58.7927 29.6119 59.089 23.4972 59.1506C18.6105 59.2003 13.7199 58.9498 8.8313 58.7828C8.52378 58.7728 8.05754 58.3891 7.95833 58.0829C6.6092 53.9455 6.44056 49.7067 6.99807 45.4182C7.55756 41.1058 7.80953 36.7815 7.53574 32.4313C7.48019 31.5645 7.13298 31.2802 6.30961 31.302C5.05373 31.3338 3.79586 31.308 2.54196 31.2682C2.20071 31.2563 1.86342 31.1012 1.52416 31.0098C1.54003 30.8587 1.5559 30.7076 1.57177 30.5585V30.5505ZM25.7748 29.2582C25.8086 29.3496 25.8423 29.4411 25.876 29.5325C26.1915 29.5485 26.5089 29.5862 26.8244 29.5763C30.5246 29.4729 34.2248 29.3556 37.925 29.2542C43.2124 29.1071 48.4978 28.952 53.7872 28.8407C54.8149 28.8188 55.1443 28.4251 55.1264 27.4052C55.0788 24.7887 55.0907 22.1683 55.1582 19.5518C55.2237 16.9751 55.4399 14.4004 55.4816 11.8238C55.4994 10.7143 55.1542 9.60096 55.1423 8.48956C55.1245 6.60277 55.2078 4.71399 55.3129 2.82919C55.3625 1.92854 55.0312 1.66014 54.1682 1.74364C53.2158 1.83709 52.2536 1.84703 51.2953 1.83907C42.1728 1.75955 33.0502 1.67008 23.9277 1.5826C19.5311 1.54085 15.1345 1.50903 10.7379 1.44342C9.95823 1.4315 9.75387 1.684 9.90267 2.44746C10.0713 3.32027 10.1388 4.21496 10.2003 5.10368C10.5257 9.89124 10.8173 14.6828 11.1784 19.4683C11.2161 19.9694 11.601 20.4624 11.8827 20.9237C12.5513 22.0152 13.3231 23.0491 13.9223 24.1744C14.3707 25.0194 14.6147 25.9737 15.0195 27.0712C15.4004 26.6318 15.6524 26.3833 15.8567 26.0989C16.5333 25.1605 17.1305 24.1585 17.8804 23.2837C18.4002 22.6773 19.047 22.0709 19.7652 21.7587C22.3663 20.6334 24.888 21.0967 27.2232 22.5441C29.5623 23.9935 29.6615 25.9896 27.5704 27.777C27.2708 28.0315 26.9196 28.2243 26.6141 28.4728C26.3185 28.7154 26.0526 28.9937 25.7748 29.2562V29.2582ZM18.6165 31.1808C18.9478 31.7534 19.1542 32.0416 19.293 32.3597C19.7018 33.2902 20.1918 34.2048 20.4497 35.177C20.8287 36.6105 20.9993 38.0977 21.3247 39.5471C21.6382 40.9428 21.4219 42.245 20.8128 43.4996C20.5231 44.1 20.1521 44.8436 19.3684 44.5454C18.5451 44.2332 18.9696 43.4459 19.1601 42.9031C19.7117 41.3344 19.6958 39.7996 19.1661 38.2329C18.7534 37.0121 18.4161 35.7675 18.0411 34.5328C17.9062 34.0915 17.8348 33.5984 17.5828 33.2326C17.3785 32.9363 16.8944 32.5785 16.6325 32.6441C16.3408 32.7176 15.9817 33.2365 15.9777 33.5646C15.9718 34.1034 16.3011 34.6362 16.3607 35.187C16.4618 36.1194 16.7555 37.1732 16.4539 37.9843C15.6127 40.2389 14.5235 42.4001 13.4957 44.5811C13.1961 45.2174 12.5255 45.4261 11.9938 45.0782C11.6823 44.8734 11.4403 44.1437 11.5573 43.7739C11.9978 42.3683 12.4978 40.9587 13.1644 39.6484C13.9917 38.0241 14.1544 36.4992 13.339 34.8191C13.0692 34.2644 13.21 33.5089 13.1723 32.8449C13.1525 32.4771 13.2676 31.8528 13.1208 31.7852C12.6049 31.5506 12.0038 31.4472 11.4324 31.4412C11.3212 31.4412 11.1308 32.0933 11.099 32.4552C10.9066 34.6303 10.7697 36.8093 10.5733 38.9844C10.3729 41.1913 10.0495 43.3882 9.91458 45.5971C9.78562 47.7106 9.80744 49.8339 9.80546 51.9533C9.80546 53.2397 9.8749 54.528 9.9364 55.8144C9.97013 56.5083 10.3848 56.7807 11.0613 56.7687C12.0534 56.7489 13.0454 56.7926 14.0354 56.7687C20.7096 56.6216 27.3819 56.4029 34.0542 56.3313C38.7464 56.2796 43.4386 56.4367 48.1308 56.4745C50.6088 56.4944 53.0869 56.4566 55.5629 56.4526C56.4379 56.4526 56.7216 55.9894 56.5946 55.1822C56.3942 53.9097 56.1462 52.6432 55.9954 51.3648C55.426 46.5077 54.317 41.7003 54.7356 36.7517C54.8784 35.0697 54.8884 33.3777 54.936 31.6897C54.9717 30.4392 54.9538 30.4372 53.6781 30.465C43.1053 30.7016 32.5304 30.9402 21.9576 31.1728C20.9418 31.1947 19.9259 31.1748 18.6105 31.1748L18.6165 31.1808ZM23.5309 23.1226C21.6659 22.7508 20.5311 23.8722 19.4934 25.1367C18.6978 26.1069 17.9181 27.097 17.2138 28.1348C16.8666 28.6458 16.7059 29.286 16.4618 29.8666C17.0928 29.8666 17.7971 30.0515 18.3407 29.8348C20.42 29.0077 22.4615 28.0792 24.4912 27.1328C26.2074 26.3316 26.4712 25.6437 25.7034 23.9119C25.5467 23.558 25.0209 23.3075 24.6102 23.1485C24.2928 23.0272 23.892 23.1246 23.5289 23.1246L23.5309 23.1226ZM7.93849 24.1306L7.76787 24.071C7.72025 23.5779 7.6766 23.0849 7.62502 22.5938C7.56947 22.0689 7.52185 21.544 7.44646 21.0211C7.25202 19.697 6.86514 19.3033 5.55767 19.1641C4.93866 19.0985 4.30972 19.1105 3.68475 19.1065C2.88123 19.1025 2.38721 19.528 2.19079 20.2895C1.93287 21.2875 1.90509 22.3075 2.63918 23.0988C3.46254 23.9855 4.34147 24.8524 5.32951 25.5363C5.86321 25.9041 6.7838 26.1447 7.32146 25.926C7.70636 25.7689 7.74604 24.7569 7.93849 24.1267V24.1306ZM11.6883 24.1704C11.4998 24.1963 11.3093 24.2241 11.1209 24.2499C11.1209 25.3892 11.1228 26.5264 11.1209 27.6656C11.1189 28.8685 11.7538 29.3854 13.1406 29.1866C12.6525 27.5026 12.1704 25.8365 11.6903 24.1724L11.6883 24.1704Z" fill="#BF2AF6"/>
<path d="M45.5607 6.45168C47.3781 6.45168 49.1974 6.42186 51.0128 6.47554C51.4016 6.48747 52.098 6.77973 52.108 6.96662C52.1437 7.70026 51.4651 7.67442 50.9533 7.69629C47.3205 7.85137 43.6878 7.9806 40.057 8.13568C31.6706 8.49554 23.2841 8.86733 14.8957 9.22918C14.3342 9.25304 13.7549 9.33654 13.2192 9.2252C12.9216 9.16357 12.6974 8.75003 12.4395 8.49554C12.6875 8.34245 12.9255 8.07007 13.1815 8.05217C16.0801 7.83944 18.9768 7.61875 21.8794 7.4915C29.7719 7.14158 37.6643 6.8354 45.5587 6.51133C45.5587 6.49145 45.5587 6.47355 45.5587 6.45367L45.5607 6.45168Z" fill="#BF2AF6"/>
<path d="M15.4671 12.1081C15.0048 12.1339 14.5306 12.2393 14.0882 12.1598C13.7866 12.1061 13.5307 11.7939 13.2549 11.5971C13.4949 11.3585 13.7172 10.935 13.9791 10.9092C15.9155 10.7124 17.8558 10.5394 19.8002 10.4638C25.6372 10.2392 31.4761 10.0602 37.3151 9.86937C37.6107 9.85943 37.9421 9.80773 38.196 9.91709C38.446 10.0264 38.7714 10.3127 38.7753 10.5294C38.7793 10.7362 38.448 11.0782 38.2079 11.1378C37.704 11.2651 37.1623 11.2631 36.6366 11.283C29.5794 11.5275 22.5222 11.7681 15.4651 12.0087C15.4651 12.0425 15.4671 12.0763 15.4691 12.1101L15.4671 12.1081Z" fill="#BF2AF6"/>
<path d="M48.1387 20.8601C42.895 21.1503 37.6492 21.4386 32.4055 21.7289C32.1753 21.7408 31.9095 21.8243 31.721 21.7408C31.475 21.6335 31.2885 21.3889 31.0762 21.204C31.2746 20.9933 31.4512 20.6314 31.6773 20.5956C32.7864 20.4227 33.9054 20.2914 35.0244 20.2298C39.8733 19.9654 44.7242 19.7268 49.5772 19.4862C49.9045 19.4703 50.2775 19.4286 50.5513 19.5618C50.7775 19.6731 51.0195 20.029 51.0076 20.2636C50.9977 20.4584 50.6406 20.7726 50.4144 20.7925C49.6605 20.8601 48.8966 20.8183 48.1368 20.8183C48.1368 20.8322 48.1368 20.8461 48.1368 20.8601H48.1387Z" fill="#BF2AF6"/>
<path d="M48.6005 22.1265C49.0946 22.1007 49.6005 21.9973 50.0786 22.0748C50.3762 22.1226 50.7909 22.3949 50.8683 22.6534C51.0389 23.22 50.5905 23.3632 50.1084 23.395C48.0014 23.5342 45.8963 23.6773 43.7913 23.8264C40.2062 24.0809 36.621 24.3473 33.0359 24.5959C32.645 24.6237 32.1233 24.8345 32.0637 24.1286C32.0102 23.5083 32.3812 23.3354 32.9109 23.2936C36.3631 23.0212 39.8133 22.7369 43.2655 22.4685C45.0412 22.3313 46.8209 22.224 48.5986 22.1027C48.5986 22.1106 48.5986 22.1186 48.5986 22.1265H48.6005Z" fill="#BF2AF6"/>
<path d="M37.5244 46.0584C41.4865 46.0584 45.4486 46.0584 49.4126 46.0584C49.6765 46.0584 49.9721 46.0047 50.1963 46.1021C50.4304 46.2055 50.7419 46.452 50.7558 46.6548C50.7717 46.8795 50.5435 47.2374 50.3273 47.3368C50.0158 47.4799 49.6249 47.468 49.2638 47.4819C40.0897 47.8298 30.9156 48.1639 21.7415 48.5277C19.5968 48.6132 17.458 48.8021 15.3153 48.9373C15.0196 48.9552 14.6923 49.0287 14.4324 48.9333C14.0971 48.81 13.8134 48.5436 13.5078 48.3408C13.8014 48.1579 14.0852 47.8358 14.3927 47.81C19.4619 47.4064 24.531 47.0127 29.6042 46.6767C32.2409 46.5017 34.8837 46.448 37.5244 46.3387C37.5244 46.2453 37.5244 46.1518 37.5244 46.0584Z" fill="#BF2AF6"/>
<path d="M39.1292 49.1858C41.2105 49.1858 43.2917 49.1858 45.3749 49.1858C45.738 49.1858 46.1269 49.1341 46.4582 49.2414C46.7538 49.3369 46.9879 49.6232 47.2479 49.824C46.9939 50.0149 46.7558 50.3429 46.484 50.3727C45.3035 50.5079 44.1111 50.5656 42.9247 50.6352C35.0045 51.0885 27.0823 51.5378 19.1621 51.9871C18.7653 52.009 18.3466 52.1025 17.9796 52.005C17.6344 51.9116 17.3467 51.6094 17.0332 51.3986C17.307 51.174 17.549 50.8201 17.8586 50.7465C18.5946 50.5735 19.3585 50.492 20.1164 50.4463C26.4533 50.0665 32.7903 49.7047 39.1273 49.3349C39.1273 49.2852 39.1292 49.2355 39.1312 49.1858H39.1292Z" fill="#BF2AF6"/>
<path d="M50.5255 37.531C48.2776 37.531 46.0336 37.4614 43.7957 37.5449C37.919 37.7617 32.0463 38.046 26.1716 38.3024C25.7748 38.3203 25.3482 38.4217 24.9931 38.3064C24.6816 38.207 24.4495 37.8571 24.1816 37.6185C24.4237 37.4475 24.6519 37.1493 24.9078 37.1254C26.3204 36.9922 27.737 36.9067 29.1536 36.8411C34.9946 36.5687 40.8355 36.3023 46.6785 36.0518C47.6665 36.0101 48.6625 36.1055 49.6505 36.0498C50.6604 35.9922 50.8727 36.4296 50.5294 37.531H50.5255Z" fill="#BF2AF6"/>
<path d="M26.9332 41.1416C26.6693 41.1416 26.3777 41.2112 26.1476 41.1217C25.9154 41.0322 25.5781 40.7797 25.5861 40.6107C25.596 40.3602 25.8162 39.9964 26.0404 39.9009C26.4213 39.7379 26.8757 39.7061 27.3003 39.6842C34.0955 39.3283 40.8908 38.9784 47.6861 38.6404C48.3765 38.6066 49.0808 38.5868 49.7614 38.6862C50.0649 38.7299 50.3248 39.0818 50.6046 39.2926C50.3328 39.5033 50.0748 39.8711 49.7852 39.899C48.7356 39.9984 47.6742 39.9626 46.6187 40.0182C40.0555 40.3682 33.4944 40.728 26.9312 41.0839C26.9312 41.1018 26.9312 41.1217 26.9332 41.1396V41.1416Z" fill="#BF2AF6"/>
</g>
<defs>
<clipPath id="clip0_86_587">
<rect width="74" height="68" fill="white"/>
</clipPath>
</defs>
</svg>
