<svg width="21" height="20" viewBox="0 0 21 20" fill="none" xmlns="http://www.w3.org/2000/svg">
<rect x="20.8672" y="0.133301" width="19.7333" height="20" rx="4" transform="rotate(90 20.8672 0.133301)" fill="#7DFFAF"/>
<path d="M6.86719 8.45789C6.86719 8.37539 6.89949 8.29288 6.9687 8.22775C7.10252 8.10182 7.324 8.10182 7.45782 8.22775L10.4663 11.059C10.6878 11.2674 11.0477 11.2674 11.2692 11.059L14.2777 8.22775C14.4115 8.10182 14.633 8.10182 14.7668 8.22775C14.9006 8.35367 14.9006 8.56211 14.7668 8.68804L11.7583 11.5192C11.523 11.7407 11.2046 11.8666 10.8678 11.8666C10.5309 11.8666 10.2125 11.745 9.97721 11.5192L6.9687 8.68804C6.9041 8.6229 6.86719 8.5404 6.86719 8.45789Z" fill="#060F05"/>
</svg>
