<svg width="20" height="20" viewBox="0 0 20 20" fill="none" xmlns="http://www.w3.org/2000/svg">
<rect y="-3.05176e-05" width="19.7333" height="20" rx="4" fill="#022648"/>
<path d="M8.32459 14C8.24209 14 8.15958 13.9677 8.09445 13.8985C7.96852 13.7646 7.96852 13.5432 8.09445 13.4093L10.9257 10.4008C11.1341 10.1793 11.1341 9.81944 10.9257 9.59795L8.09445 6.58944C7.96852 6.45563 7.96852 6.23414 8.09445 6.10033C8.22037 5.96652 8.42881 5.96652 8.55473 6.10033L11.3859 9.10884C11.6074 9.34417 11.7333 9.66255 11.7333 9.99939C11.7333 10.3362 11.6117 10.6546 11.3859 10.8899L8.55473 13.8985C8.4896 13.9631 8.40709 14 8.32459 14Z" fill="#F1FAF0"/>
</svg>
