<svg width="20" height="20" viewBox="0 0 20 20" fill="none" xmlns="http://www.w3.org/2000/svg">
<rect x="0.132812" width="19.7333" height="20" rx="4" fill="#7DFFAF"/>
<path d="M8.4574 14C8.3749 14 8.29239 13.9677 8.22726 13.8985C8.10133 13.7647 8.10133 13.5432 8.22726 13.4094L11.0585 10.4009C11.2669 10.1794 11.2669 9.81947 11.0585 9.59798L8.22726 6.58947C8.10133 6.45566 8.10133 6.23417 8.22726 6.10036C8.35319 5.96655 8.56162 5.96655 8.68755 6.10036L11.5188 9.10887C11.7402 9.3442 11.8661 9.66258 11.8661 9.99942C11.8661 10.3363 11.7446 10.6547 11.5188 10.89L8.68755 13.8985C8.62241 13.9631 8.53991 14 8.4574 14Z" fill="#060F05"/>
</svg>
