<svg width="33" height="32" viewBox="0 0 33 32" fill="none" xmlns="http://www.w3.org/2000/svg">
<circle cx="16.5" cy="16" r="16" fill="#E5F2E3"/>
<path d="M17.8333 22.3366H15.1667C14.9899 22.3366 14.8203 22.2663 14.6953 22.1413C14.5702 22.0163 14.5 21.8467 14.5 21.6699V17.5366H13.1667C12.9899 17.5366 12.8203 17.4663 12.6953 17.3413C12.5702 17.2163 12.5 17.0467 12.5 16.8699V14.4699C12.5 14.2931 12.5702 14.1235 12.6953 13.9985C12.8203 13.8735 12.9899 13.8032 13.1667 13.8032H14.5V12.6699C14.5467 11.6541 14.9937 10.6982 15.7433 10.0111C16.4929 9.32398 17.484 8.96162 18.5 9.00322H20.5C20.6768 9.00322 20.8464 9.07346 20.9714 9.19849C21.0964 9.32351 21.1667 9.49308 21.1667 9.66989V12.0699C21.1667 12.2467 21.0964 12.4163 20.9714 12.5413C20.8464 12.6663 20.6768 12.7366 20.5 12.7366H18.5V13.8032H20.5C20.6029 13.8024 20.7047 13.8255 20.7972 13.8706C20.8897 13.9157 20.9705 13.9817 21.0333 14.0632C21.0954 14.146 21.1374 14.2421 21.1559 14.344C21.1744 14.4458 21.169 14.5505 21.14 14.6499L20.4733 17.0499C20.433 17.1941 20.3453 17.3205 20.2244 17.4088C20.1034 17.4971 19.9563 17.5421 19.8067 17.5366H18.5V21.6699C18.5 21.8467 18.4298 22.0163 18.3047 22.1413C18.1797 22.2663 18.0101 22.3366 17.8333 22.3366ZM15.8333 21.0032H17.1667V16.8699C17.1667 16.6931 17.2369 16.5235 17.3619 16.3985C17.487 16.2735 17.6565 16.2032 17.8333 16.2032H19.3267L19.62 15.1366H17.8333C17.6565 15.1366 17.487 15.0663 17.3619 14.9413C17.2369 14.8163 17.1667 14.6467 17.1667 14.4699V12.6699C17.1838 12.328 17.3318 12.0057 17.58 11.7699C17.8282 11.5341 18.1576 11.4028 18.5 11.4032H19.8333V10.3366H18.5C17.8379 10.2962 17.1865 10.5186 16.6873 10.9554C16.1881 11.3922 15.8812 12.0083 15.8333 12.6699V14.4699C15.8333 14.6467 15.7631 14.8163 15.6381 14.9413C15.513 15.0663 15.3435 15.1366 15.1667 15.1366H13.8333V16.2032H15.1667C15.3435 16.2032 15.513 16.2735 15.6381 16.3985C15.7631 16.5235 15.8333 16.6931 15.8333 16.8699V21.0032Z" fill="#100311"/>
</svg>
