<?xml version="1.0" encoding="UTF-8"?><svg id="Layer_2" xmlns="http://www.w3.org/2000/svg" viewBox="0 0 190.22 173.22"><defs><style>.cls-1{stroke-linecap:round;}.cls-1,.cls-2{fill:none;stroke:#7dffaf;stroke-miterlimit:10;stroke-width:2.22px;}</style></defs><g id="Layer_1-2"><rect class="cls-2" x="1.11" y="1.11" width="188" height="136.81" rx="9.53" ry="9.53"/><rect class="cls-2" x="18.5" y="18.86" width="75.05" height="34.85" rx="4.27" ry="4.27"/><rect class="cls-2" x="61.84" y="68.86" width="35.18" height="34.85" rx="4.27" ry="4.27"/><rect class="cls-2" x="15.77" y="68.86" width="35.18" height="34.85" rx="4.27" ry="4.27"/><polyline class="cls-1" points="132.59 20.69 122.62 34.2 132.59 48.49"/><polyline class="cls-1" points="165.42 19.87 175.4 33.38 165.42 47.68"/><line class="cls-1" x1="151.95" y1="18.86" x2="145.17" y2="47.68"/><line class="cls-1" x1="123.99" y1="69.51" x2="175.4" y2="69.51"/><line class="cls-1" x1="123.99" y1="86.28" x2="175.4" y2="86.28"/><line class="cls-1" x1="123.99" y1="103.06" x2="175.4" y2="103.06"/><line class="cls-1" x1="108.8" y1="1.11" x2="108.8" y2="118.86"/><line class="cls-1" x1="1.11" y1="118.86" x2="189.11" y2="118.86"/><path class="cls-2" d="M72.81,137.91l-12.15,24.75c-2.14,4.36,1.03,9.46,5.88,9.46h58.78c4.74,0,7.91-4.88,5.99-9.22l-11.05-24.98"/></g></svg>