<svg width="33" height="32" viewBox="0 0 33 32" fill="none" xmlns="http://www.w3.org/2000/svg">
<circle cx="16.5" cy="16" r="16" fill="#E5F2E3"/>
<g clip-path="url(#clip0_86_42)">
<path d="M21.8333 22.6668H20.72C20.3664 22.6668 20.0272 22.5263 19.7772 22.2762C19.5271 22.0262 19.3867 21.6871 19.3867 21.3334V17.7534C19.3926 17.613 19.3502 17.4748 19.2665 17.362C19.1827 17.2491 19.0628 17.1684 18.9267 17.1334C18.8475 17.1214 18.7666 17.1265 18.6896 17.1483C18.6125 17.1702 18.5411 17.2083 18.48 17.2601C18.4172 17.3134 18.3667 17.3798 18.3322 17.4547C18.2976 17.5295 18.2798 17.611 18.28 17.6934V21.3334C18.28 21.6871 18.1395 22.0262 17.8895 22.2762C17.6394 22.5263 17.3003 22.6668 16.9467 22.6668H15.8333C15.4797 22.6668 15.1406 22.5263 14.8905 22.2762C14.6405 22.0262 14.5 21.6871 14.5 21.3334V17.6934C14.5 16.5442 14.9565 15.442 15.7692 14.6293C16.5819 13.8167 17.6841 13.3601 18.8333 13.3601C19.9826 13.3601 21.0848 13.8167 21.8975 14.6293C22.7101 15.442 23.1667 16.5442 23.1667 17.6934V21.3334C23.1667 21.6871 23.0262 22.0262 22.7761 22.2762C22.5261 22.5263 22.187 22.6668 21.8333 22.6668ZM18.8333 15.7934C18.9377 15.7869 19.0423 15.7869 19.1467 15.7934C19.5942 15.8795 19.9972 16.1205 20.2849 16.474C20.5726 16.8275 20.7266 17.271 20.72 17.7268V21.3334H21.8333V17.6934C21.8333 16.8978 21.5173 16.1347 20.9547 15.5721C20.392 15.0095 19.629 14.6934 18.8333 14.6934C18.0377 14.6934 17.2746 15.0095 16.712 15.5721C16.1494 16.1347 15.8333 16.8978 15.8333 17.6934V21.3334H16.9467V17.6934C16.9467 17.1918 17.145 16.7106 17.4984 16.3546C17.8519 15.9987 18.3317 15.797 18.8333 15.7934Z" fill="#100311"/>
<path d="M12.4997 22.6666H11.1663C10.8127 22.6666 10.4736 22.5261 10.2235 22.2761C9.97348 22.026 9.83301 21.6869 9.83301 21.3333V14.6666C9.83301 14.313 9.97348 13.9738 10.2235 13.7238C10.4736 13.4737 10.8127 13.3333 11.1663 13.3333H12.4997C12.8533 13.3333 13.1924 13.4737 13.4425 13.7238C13.6925 13.9738 13.833 14.313 13.833 14.6666V21.3333C13.833 21.6869 13.6925 22.026 13.4425 22.2761C13.1924 22.5261 12.8533 22.6666 12.4997 22.6666ZM11.1663 14.6666V21.3333H12.4997V14.6666H11.1663Z" fill="#100311"/>
<path d="M11.833 12.6667C11.4374 12.6667 11.0508 12.5495 10.7219 12.3297C10.393 12.1099 10.1366 11.7976 9.98525 11.4321C9.83387 11.0667 9.79427 10.6645 9.87144 10.2766C9.94861 9.88861 10.1391 9.53224 10.4188 9.25254C10.6985 8.97283 11.0549 8.78235 11.4428 8.70518C11.8308 8.62801 12.2329 8.66761 12.5984 8.81899C12.9638 8.97037 13.2762 9.22671 13.4959 9.55561C13.7157 9.88451 13.833 10.2712 13.833 10.6667C13.833 11.1972 13.6223 11.7059 13.2472 12.081C12.8721 12.456 12.3634 12.6667 11.833 12.6667ZM11.833 10.0001C11.7012 10.0001 11.5723 10.0392 11.4626 10.1124C11.353 10.1857 11.2675 10.2898 11.2171 10.4116C11.1666 10.5334 11.1534 10.6675 11.1792 10.7968C11.2049 10.9261 11.2684 11.0449 11.3616 11.1382C11.4548 11.2314 11.5736 11.2949 11.7029 11.3206C11.8323 11.3463 11.9663 11.3331 12.0881 11.2827C12.2099 11.2322 12.3141 11.1468 12.3873 11.0371C12.4606 10.9275 12.4997 10.7986 12.4997 10.6667C12.4997 10.4899 12.4294 10.3204 12.3044 10.1953C12.1794 10.0703 12.0098 10.0001 11.833 10.0001Z" fill="#100311"/>
</g>
<defs>
<clipPath id="clip0_86_42">
<rect width="16" height="16" fill="white" transform="translate(8.5 8)"/>
</clipPath>
</defs>
</svg>
