<svg width="33" height="32" viewBox="0 0 33 32" fill="none" xmlns="http://www.w3.org/2000/svg">
<circle cx="16.5" cy="16" r="16" fill="#E5F2E3"/>
<g clip-path="url(#clip0_86_39)">
<path d="M16.5008 7.99976C14.3281 7.99976 14.0554 8.00926 13.202 8.04809C12.3504 8.08709 11.769 8.22192 11.2604 8.41976C10.7342 8.6241 10.2879 8.89743 9.84318 9.34227C9.39818 9.78694 9.12484 10.2333 8.91984 10.7593C8.7215 11.2681 8.5865 11.8496 8.54817 12.701C8.51 13.5543 8.5 13.8272 8.5 15.9998C8.5 18.1725 8.50967 18.4444 8.54833 19.2977C8.5875 20.1494 8.72234 20.7307 8.92 21.2394C9.12451 21.7656 9.39784 22.2119 9.84268 22.6566C10.2872 23.1016 10.7335 23.3756 11.2594 23.5799C11.7684 23.7778 12.3499 23.9126 13.2014 23.9516C14.0547 23.9904 14.3272 23.9999 16.4998 23.9999C18.6726 23.9999 18.9444 23.9904 19.7978 23.9516C20.6495 23.9126 21.2315 23.7778 21.7405 23.5799C22.2665 23.3756 22.7121 23.1016 23.1567 22.6566C23.6017 22.2119 23.875 21.7656 24.08 21.2396C24.2767 20.7307 24.4117 20.1492 24.4517 19.2979C24.49 18.4445 24.5 18.1725 24.5 15.9998C24.5 13.8272 24.49 13.5545 24.4517 12.7011C24.4117 11.8495 24.2767 11.2681 24.08 10.7595C23.875 10.2333 23.6017 9.78694 23.1567 9.34227C22.7116 8.89727 22.2666 8.62393 21.74 8.41976C21.23 8.22192 20.6483 8.08709 19.7966 8.04809C18.9433 8.00926 18.6716 7.99976 16.4983 7.99976H16.5008ZM15.7831 9.44144C15.9961 9.4411 16.2337 9.44144 16.5008 9.44144C18.6368 9.44144 18.8899 9.4491 19.7335 9.48744C20.5135 9.52311 20.9368 9.65344 21.2188 9.76294C21.5921 9.90794 21.8583 10.0813 22.1381 10.3613C22.4181 10.6413 22.5915 10.908 22.7368 11.2813C22.8463 11.563 22.9768 11.9863 23.0123 12.7663C23.0507 13.6096 23.059 13.863 23.059 15.998C23.059 18.133 23.0507 18.3864 23.0123 19.2297C22.9767 20.0097 22.8463 20.4331 22.7368 20.7147C22.5918 21.0881 22.4181 21.3539 22.1381 21.6337C21.8581 21.9137 21.5923 22.0871 21.2188 22.2321C20.9371 22.3421 20.5135 22.4721 19.7335 22.5077C18.8901 22.5461 18.6368 22.5544 16.5008 22.5544C14.3646 22.5544 14.1114 22.5461 13.2681 22.5077C12.488 22.4717 12.0647 22.3414 11.7825 22.2319C11.4092 22.0869 11.1425 21.9136 10.8625 21.6336C10.5825 21.3536 10.4092 21.0876 10.2639 20.7141C10.1544 20.4324 10.0238 20.0091 9.98835 19.229C9.95002 18.3857 9.94235 18.1324 9.94235 15.996C9.94235 13.8597 9.95002 13.6076 9.98835 12.7643C10.024 11.9843 10.1544 11.561 10.2639 11.279C10.4089 10.9056 10.5825 10.639 10.8625 10.3589C11.1425 10.0789 11.4092 9.90561 11.7825 9.76027C12.0645 9.65027 12.488 9.52027 13.2681 9.48444C14.0061 9.4511 14.2921 9.4411 15.7831 9.43944V9.44144ZM20.7711 10.7698C20.2411 10.7698 19.8111 11.1993 19.8111 11.7295C19.8111 12.2595 20.2411 12.6895 20.7711 12.6895C21.3011 12.6895 21.7311 12.2595 21.7311 11.7295C21.7311 11.1995 21.3011 10.7695 20.7711 10.7695V10.7698ZM16.5008 11.8915C14.2319 11.8915 12.3924 13.731 12.3924 15.9998C12.3924 18.2687 14.2319 20.1074 16.5008 20.1074C18.7696 20.1074 20.6085 18.2687 20.6085 15.9998C20.6085 13.731 18.7696 11.8915 16.5008 11.8915ZM16.5008 13.3331C17.9734 13.3331 19.1674 14.527 19.1674 15.9998C19.1674 17.4725 17.9734 18.6665 16.5008 18.6665C15.0279 18.6665 13.8341 17.4725 13.8341 15.9998C13.8341 14.527 15.0279 13.3331 16.5008 13.3331Z" fill="#100311"/>
</g>
<defs>
<clipPath id="clip0_86_39">
<rect width="16.0005" height="16" fill="white" transform="translate(8.5 8)"/>
</clipPath>
</defs>
</svg>
