<?xml version="1.0" encoding="UTF-8"?><svg id="Layer_2" xmlns="http://www.w3.org/2000/svg" viewBox="0 0 190.22 173.23"><defs><style>.cls-1,.cls-2,.cls-3,.cls-4,.cls-5{fill:none;stroke:#e5f2e3;stroke-miterlimit:10;}.cls-1,.cls-3{stroke-width:2.22px;}.cls-2{stroke-width:1.17px;}.cls-2,.cls-3{stroke-linecap:round;}.cls-4{stroke-width:1.95px;}.cls-5{stroke-width:2px;}</style></defs><g id="Layer_1-2"><polyline class="cls-2" points="87.29 90.62 82.03 97.74 87.29 105.27"/><polyline class="cls-2" points="104.58 90.19 109.84 97.31 104.58 104.84"/><line class="cls-2" x1="97.49" y1="89.66" x2="93.91" y2="104.84"/><path class="cls-1" d="M179.58,1.11H10.64C5.37,1.11,1.11,5.38,1.11,10.64v117.75c0,5.26,4.26,9.53,9.53,9.53h168.94c5.26,0,9.53-4.27,9.53-9.53V10.64c0-5.26-4.27-9.53-9.53-9.53ZM119.31,105.74c0,1.9-1.54,3.44-3.44,3.44h-40.77c-1.9,0-3.44-1.54-3.44-3.44v-16.55c0-1.9,1.54-3.44,3.44-3.44h40.77c1.9,0,3.44,1.54,3.44,3.44v16.55Z"/><path class="cls-4" d="M71.66,97.95h-11.47c-5.26,0-9.53-4.27-9.53-9.53V24.52c0-5.26,4.27-9.53,9.53-9.53h71.82c5.27,0,9.53,4.27,9.53,9.53v63.9c0,5.26-4.26,9.53-9.53,9.53h-12.7"/><line class="cls-3" x1="1.11" y1="118.86" x2="189.11" y2="118.86"/><path class="cls-1" d="M72.81,137.92l-12.15,24.75c-2.14,4.36,1.03,9.46,5.88,9.46h58.78c4.74,0,7.91-4.88,5.99-9.22l-11.05-24.98"/><rect class="cls-5" x="58.96" y="21.69" width="23.29" height="4.94" rx="2.47" ry="2.47"/><circle class="cls-5" cx="91.37" cy="24.16" r="2.59"/><circle class="cls-5" cx="102.98" cy="24.16" r="2.59"/><circle class="cls-5" cx="114.59" cy="24.16" r="2.59"/><line class="cls-5" x1="50.66" y1="33.22" x2="141.54" y2="33.22"/><path class="cls-5" d="M77.12,39.81h4.66c.26,0,.47.21.47.47v18.79c0,.12-.05.24-.13.33l-12.22,12.79c-.17.18-.17.46-.01.64l3.19,3.58c.24.26.11.69-.24.77l-13.19,3.25c-.33.08-.63-.2-.58-.54l2.35-13.7c.07-.4.57-.53.83-.22l2.55,3.14c.18.22.5.23.7.04l10.56-10.49c.09-.09.14-.2.14-.32l.45-18.06c0-.26.22-.46.47-.46Z"/><path class="cls-5" d="M115.15,39.81h-4.66c-.26,0-.47.21-.47.47v18.79c0,.12.05.24.13.33l12.22,12.79c.17.18.17.46.01.64l-3.19,3.58c-.24.26-.11.69.24.77l13.19,3.25c.33.08.63-.2.58-.54l-2.35-13.7c-.07-.4-.57-.53-.83-.22l-2.55,3.14c-.18.22-.5.23-.7.04l-10.56-10.49c-.09-.09-.14-.2-.14-.32l-.45-18.06c0-.26-.22-.46-.47-.46Z"/><path class="cls-5" d="M92.79,40.52h5.63c.07,0,.13.06.13.13v26.63c0,.07.06.13.13.13h4.35c.1,0,.16.11.11.19l-7.48,11.7c-.05.08-.16.08-.21,0l-7.42-11.82c-.05-.08,0-.19.11-.19h4.35c.07,0,.13-.06.13-.13l.06-26.51c0-.07.06-.13.13-.13Z"/></g></svg>