<svg width="100" height="66" viewBox="0 0 100 66" fill="none" xmlns="http://www.w3.org/2000/svg">
<g clip-path="url(#clip0_86_602)">
<path d="M100.001 32.0155C99.7626 32.8731 99.6101 33.7684 99.2704 34.5837C98.2144 37.1168 96.1603 38.4585 93.6671 39.2292C90.1272 40.3218 86.6728 40.5568 83.082 39.1023C76.8849 36.5904 77.0674 29.2968 80.3601 25.7087C85.7785 19.8038 95.4047 21.9984 98.3207 26.7637C99.1456 28.1125 99.4552 29.7855 100.001 31.3105V32.0155ZM88.5675 38.2047C90.3582 37.7818 92.1744 37.4716 93.9166 36.9194C98.866 35.3474 98.5056 29.6234 96.0794 26.9987C94.7461 25.556 93.0132 24.9591 91.1878 24.6043C87.3544 23.8571 83.9092 24.5503 81.319 27.7694C78.5393 31.2212 79.6091 35.4062 83.7013 36.9523C85.2263 37.5303 86.8715 37.7818 88.5675 38.2094V38.2047Z" fill="#BF2AF6"/>
<path d="M47.507 3.48706C49.8154 0.547508 52.7961 -0.427641 56.1858 0.166848C61.119 1.03156 65.2343 3.28968 67.6928 8.00799C69.1116 10.7314 69.3703 13.5605 68.6448 16.5259C67.9077 19.5383 68.2428 20.2925 70.6643 22.2146C72.1685 23.4083 73.6127 24.7007 74.9436 26.0894C75.7316 26.9118 75.4936 27.4099 74.3613 27.7013C70.7868 28.6201 67.2538 28.2606 63.7948 27.1421C63.0808 26.9118 62.4523 26.2539 61.9139 25.6688C61.4056 25.1189 61.0012 25.0367 60.3126 25.321C56.3614 26.9447 52.4842 26.8812 48.704 24.703C48.3897 24.5221 47.7889 24.7007 47.3846 24.8675C45.6562 25.5818 43.9949 26.4959 42.2249 27.0692C40.0737 27.7671 37.9294 27.2384 35.9654 26.2492C34.7731 25.6476 33.9713 25.9155 33.121 26.799C31.73 28.2465 30.3343 29.6963 28.8278 31.0145C28.2802 31.4938 27.416 31.5949 26.6951 31.8698C26.5056 31.1014 26.0666 30.2931 26.1752 29.5717C26.568 26.9517 27.141 24.3576 27.654 21.7564C27.8573 20.7296 27.7025 19.933 26.8337 19.1646C25.4658 17.9545 24.9852 16.1804 24.7888 14.4299C24.0679 7.96334 26.7182 2.96306 33.2758 1.04801C38.2252 -0.397094 42.8511 0.197395 47.0796 3.30612C47.1974 3.39307 47.3545 3.42596 47.5047 3.48941L47.507 3.48706ZM28.1693 28.7258C28.3472 28.8339 28.5274 28.942 28.7053 29.0501C28.9364 28.6976 29.1282 28.3099 29.4055 27.9997C30.2281 27.0763 31.0368 26.1293 31.9402 25.2905C33.1603 24.1555 34.4404 23.5751 36.171 24.508C38.5441 25.7863 41.0372 25.8544 43.6298 24.8746C48.6716 22.9712 51.8395 17.313 50.6819 12.0073C49.3948 6.11173 45.2865 2.5636 39.1079 2.17119C35.0665 1.91272 31.3903 2.92076 28.5806 6.08824C25.3757 9.70217 25.4381 15.0996 28.6753 18.5749C29.4286 19.3832 29.759 20.215 29.5279 21.3217C29.2668 22.5788 29.1097 23.8595 28.881 25.1236C28.6614 26.3267 28.4096 27.5251 28.1716 28.7258H28.1693ZM72.4389 25.8309C71.6371 25.2341 71.1195 24.8534 70.6065 24.4704C66.9188 21.7165 65.4654 20.2009 66.7524 15.8914C68.1758 11.1261 65.3799 5.75927 61.3039 3.94291C60.1139 3.41186 58.9124 2.87612 57.667 2.50486C54.8688 1.67069 52.2023 1.90567 49.7946 3.77138C49.1106 4.30242 48.8957 4.79352 49.3856 5.64413C50.3122 7.25137 51.1371 8.92205 51.9597 10.5904C52.4772 11.6384 52.6113 12.8649 53.9884 13.3678C54.8133 13.6686 54.6908 14.6649 53.8174 15.0079C52.9024 15.3674 52.6228 16.0794 52.3317 16.9277C51.7933 18.4997 51.2041 20.0646 50.4878 21.559C49.9147 22.748 49.9009 23.0441 51.1001 23.6362C54.1109 25.1236 57.0731 24.7594 59.966 23.2908C61.4864 22.5177 61.4587 22.4754 62.5147 23.7208C63.3442 24.6983 64.3355 25.3915 65.641 25.5301C67.5496 25.7346 69.4582 25.9601 71.3691 26.1505C71.5978 26.174 71.8451 26.0142 72.4389 25.8286V25.8309Z" fill="#BF2AF6"/>
<path d="M8.09238 66C5.98739 65.8473 3.88008 65.6828 1.77509 65.5441C0.903973 65.4878 0.557377 65.0836 0.672909 64.1813C1.36148 58.8332 2.05005 53.4781 4.51089 48.5906C6.23001 45.1764 8.77633 42.7726 12.6975 42.3403C15.5696 42.0231 18.0513 43.1087 20.2672 44.8592C22.587 46.6897 24.2114 49.1264 25.51 51.7464C26.8363 54.4251 27.9778 57.2025 29.1308 59.9682C29.7639 61.4861 29.69 61.6365 28.1626 62.1699C21.9193 64.3528 15.565 66.0564 8.09238 66.0024V66ZM7.56325 63.7278C13.8551 63.8711 19.9321 62.6117 25.9305 60.7953C26.9403 60.4898 27.0004 59.9517 26.6792 59.1387C26.4065 58.4502 26.127 57.7641 25.8335 57.085C24.3247 53.5721 22.8666 50.0028 20.0338 47.3265C16.0618 43.5739 9.98711 43.4682 6.76608 48.7434C4.17353 52.9917 3.52424 57.7829 2.84953 62.5835C2.73169 63.4317 3.11757 63.7254 3.86853 63.7278C5.1001 63.7278 6.33167 63.7278 7.56325 63.7278Z" fill="#BF2AF6"/>
<path d="M91.6816 65.7721C84.7219 65.9131 78.0118 64.5737 71.4912 62.1276C70.3821 61.7117 70.2689 61.2159 70.6663 60.1162C72.3438 55.4778 74.257 50.9757 77.3233 47.0798C79.2041 44.69 81.5148 42.9301 84.5417 42.4296C88.7424 41.7341 92.9802 44.1473 95.0805 48.2123C97.3912 52.6839 98.2877 57.5456 99.0202 62.4613C99.0317 62.5388 99.0248 62.6187 99.0387 62.6962C99.5886 65.6781 99.2258 65.4102 96.4092 65.7439C94.8518 65.9295 93.2574 65.7768 91.6793 65.7768L91.6816 65.7721ZM92.0374 63.716C93.3452 63.716 94.6531 63.7325 95.9609 63.7113C96.8713 63.6972 97.1139 63.1638 97.0122 62.3015C96.5755 58.6406 95.8569 55.0478 94.4636 51.6289C93.4839 49.2251 92.347 46.8612 89.9324 45.6253C86.1753 43.7031 81.9815 44.6736 79.084 48.0291C76.191 51.3775 74.5759 55.4425 72.9908 59.5123C72.7459 60.1374 72.8522 60.6355 73.6817 60.7765C74.4326 60.9034 75.1651 61.1642 75.8999 61.3898C81.1635 63.0041 86.5358 63.85 92.0374 63.7184V63.716Z" fill="#BF2AF6"/>
<path d="M10.6455 22.0736C14.9063 22.4449 18.3007 23.7396 20.5327 27.323C23.1784 31.5666 21.7227 36.6186 17.2794 38.771C12.873 40.9046 8.55207 40.6156 4.30048 38.4538C0.601145 36.574 -0.722853 33.2021 0.372392 29.1299C1.34748 25.5113 3.91461 23.6879 7.22345 22.7128C8.43191 22.3579 9.70739 22.2428 10.6455 22.0736ZM11.177 38.1225C12.7759 37.7348 14.5921 37.5092 16.2419 36.8513C19.9967 35.3521 21.0157 31.6912 18.8067 28.23C15.7382 23.4224 6.98083 22.9266 3.43168 27.424C1.03555 30.4576 1.1349 35.6176 6.12127 37.0721C7.69482 37.5303 9.33537 37.7489 11.177 38.1248V38.1225Z" fill="#BF2AF6"/>
<path d="M37.7076 14.2113C37.7376 15.2335 37.2431 15.4403 36.5939 15.3345C35.9538 15.2311 35.1035 15.304 35.1174 14.2842C35.1289 13.4571 35.5148 12.8391 36.4159 12.8485C37.4026 12.8602 37.6313 13.6051 37.7053 14.2113H37.7076Z" fill="#BF2AF6"/>
<path d="M46.4627 12.5148C47.082 13.2479 47.6827 13.6427 47.7636 14.1267C47.893 14.9139 47.2622 15.257 46.5066 15.2264C45.6725 15.1935 45.1826 14.7142 45.3397 13.8965C45.4183 13.49 45.9128 13.1657 46.4627 12.5148Z" fill="#BF2AF6"/>
<path d="M32.5576 14.0891C31.8782 14.6977 31.4993 15.3063 31.1042 15.3181C30.6929 15.3298 29.9234 14.7729 29.9165 14.451C29.9003 13.7249 30.2862 12.9307 31.2174 13.0412C31.5848 13.0858 31.906 13.5605 32.5553 14.0891H32.5576Z" fill="#BF2AF6"/>
<path d="M41.4675 15.5836C41.0424 14.8411 40.6588 14.3923 40.5595 13.8871C40.5202 13.6873 41.1186 13.3607 41.426 13.0905C41.7541 13.6004 42.1261 14.0915 42.3756 14.639C42.4218 14.74 41.969 15.0737 41.4675 15.5836Z" fill="#BF2AF6"/>
<path d="M58.3066 15.5225C57.5834 14.8129 56.9433 14.4252 56.6846 13.8589C56.4442 13.3325 57.4586 12.4091 58.0871 12.4725C59.0876 12.5736 59.3048 13.4007 59.3141 14.1737C59.3187 14.5239 58.8103 14.8787 58.3066 15.5249V15.5225Z" fill="#BF2AF6"/>
<path d="M64.6708 13.7484C64.6708 14.4957 64.4467 15.0385 63.5709 15.0291C62.8523 15.022 62.3394 14.7541 62.3902 13.9552C62.4387 13.1986 62.783 12.6229 63.6426 12.5665C64.4906 12.5101 64.6847 13.0294 64.6708 13.7461V13.7484Z" fill="#BF2AF6"/>
</g>
<defs>
<clipPath id="clip0_86_602">
<rect width="100" height="66" fill="white"/>
</clipPath>
</defs>
</svg>
