<svg width="36" height="29" viewBox="0 0 36 29" fill="none" xmlns="http://www.w3.org/2000/svg">
<rect x="0.25" y="0.25" width="35.5" height="28.5" rx="4" fill="#7DFFAF"/>
<rect x="0.25" y="0.25" width="35.5" height="28.5" rx="4" fill="black" fill-opacity="0.2"/>
<path d="M27 9.75H9C8.59 9.75 8.25 9.41 8.25 9C8.25 8.59 8.59 8.25 9 8.25H27C27.41 8.25 27.75 8.59 27.75 9C27.75 9.41 27.41 9.75 27 9.75Z" fill="#060F05"/>
<path d="M27 15.25H9C8.59 15.25 8.25 14.91 8.25 14.5C8.25 14.09 8.59 13.75 9 13.75H27C27.41 13.75 27.75 14.09 27.75 14.5C27.75 14.91 27.41 15.25 27 15.25Z" fill="#060F05"/>
<path d="M27 20.75H9C8.59 20.75 8.25 20.41 8.25 20C8.25 19.59 8.59 19.25 9 19.25H27C27.41 19.25 27.75 19.59 27.75 20C27.75 20.41 27.41 20.75 27 20.75Z" fill="#060F05"/>
</svg>
