<svg width="16" height="17" viewBox="0 0 16 17" fill="none" xmlns="http://www.w3.org/2000/svg">
<circle cx="8" cy="8.5" r="8" fill="#F1FAF0"/>
<path d="M11.1031 9.94375C11.0469 9.94688 10.9938 9.94688 10.9375 9.94688C10.0281 9.94688 9.17188 9.59375 8.52813 8.95C7.88438 8.30625 7.53125 7.45 7.53125 6.54063C7.53125 6.02188 7.64688 5.52188 7.8625 5.06875C7.95938 4.86875 8.075 4.67813 8.20938 4.5C7.97188 4.525 7.74375 4.575 7.52188 4.64375C6.05938 5.10625 5 6.47188 5 8.0875C5 10.0813 6.61562 11.6969 8.60938 11.6969C9.7125 11.6969 10.6969 11.2031 11.3594 10.425C11.5094 10.2469 11.6469 10.0531 11.7594 9.84688C11.5469 9.9 11.3281 9.93438 11.1031 9.94375Z" fill="black"/>
</svg>
