<svg width="84" height="94" viewBox="0 0 84 94" fill="none" xmlns="http://www.w3.org/2000/svg">
<g clip-path="url(#clip0_82_296)">
<path d="M62.0486 32.5301C63.7502 31.0319 65.3525 30.3166 67.2775 31.3423C69.1236 32.3276 69.1845 34.2105 69.4373 36.0933C71.4052 35.135 73.2039 34.2082 75.0093 35.9021C76.5936 37.3868 76.343 39.4203 76.4943 41.4651C76.9298 41.2649 77.1939 41.1569 77.4466 41.0242C80.9604 39.1616 83.1021 41.3324 83.4068 44.3242C83.5535 45.7706 83.5016 47.2486 83.409 48.7063C83.2172 51.7318 83.0412 54.7642 82.6756 57.7718C82.1543 62.0368 79.9968 65.672 77.9093 69.3207C76.1016 72.479 74.4699 75.7183 73.7229 79.3152C73.504 80.3748 73.3889 81.4568 73.24 82.5298C73.1565 83.1237 73.3957 83.4566 74.0366 83.4656C74.3729 83.4701 74.7091 83.5308 75.0454 83.5713C76.589 83.7535 77.7265 84.8108 77.7942 86.3427C77.8935 88.5877 77.8619 90.8395 77.8957 93.089C77.907 93.7683 77.5549 94.018 76.914 94C76.3024 93.982 76.0858 93.7098 76.088 93.0867C76.0993 91.0262 76.0181 88.9634 76.0361 86.9028C76.0452 85.8478 75.6051 85.4136 74.5647 85.4136C72.3463 85.4136 70.1301 85.3304 67.9117 85.3394C60.3898 85.3664 52.8702 85.4136 45.3484 85.4609C43.9063 85.4699 43.7573 85.6341 43.7506 87.1098C43.7415 89.0578 43.7054 91.0082 43.7506 92.9562C43.7686 93.7121 43.4301 93.9663 42.7666 93.9977C41.9925 94.0337 41.9745 93.5344 41.979 92.9562C41.9925 90.9317 41.97 88.9071 41.979 86.8848C41.9858 85.1302 43.1232 83.8592 44.888 83.596C46.2932 83.3876 47.0026 82.5628 47.0161 81.1216C47.0274 79.7337 46.971 78.3457 47.0365 76.9623C47.2193 73.0076 45.6102 69.9393 42.5251 67.5458C39.2663 65.0174 36.5379 61.9986 34.2946 58.5433C31.1622 53.7159 30.334 48.5218 31.7874 42.9588C32.1462 41.5821 32.4847 40.1986 32.7736 38.8062C32.9022 38.1853 33.1482 37.9244 33.814 37.9244C37.8062 37.9244 40.2458 40.4753 39.9321 44.043C39.8305 45.1948 39.9163 46.3645 39.9186 47.5275C39.9186 48.5465 40.4331 49.1404 41.3809 49.5341C45.8471 51.3832 50.9497 48.9492 52.4053 44.3197C54.0415 39.1211 53.3622 34.1137 51.3289 29.1986C50.8166 27.9568 50.2163 26.7466 49.6069 25.5476C48.5417 23.4511 48.8757 21.566 50.5706 20.3625C52.3828 19.0758 54.4771 19.2648 56.0839 20.8821C58.4129 23.2284 59.6406 26.2135 60.8615 29.1941C61.279 30.2131 61.604 31.2703 62.0508 32.5391L62.0486 32.5301ZM60.0784 83.4701C60.0784 83.4566 60.0784 83.4408 60.0784 83.4273C63.4636 83.4273 66.8488 83.4251 70.2339 83.4296C70.841 83.4296 71.3104 83.3958 71.3917 82.5815C71.9198 77.2682 73.9147 72.479 76.5258 67.863C78.0086 65.2401 79.4078 62.5002 80.3421 59.6523C81.967 54.6989 81.5111 49.5003 81.4908 44.3737C81.4908 43.971 81.4163 43.5256 81.2335 43.1747C81.0597 42.8395 80.7483 42.4661 80.412 42.3447C78.9248 41.8025 76.2686 43.6741 76.2054 45.2533C76.1625 46.3398 76.0903 47.424 76.0677 48.5105C76.0519 49.2304 75.5915 49.4733 75.0341 49.3316C74.7407 49.2574 74.3864 48.8007 74.3481 48.4836C74.2623 47.784 74.3796 47.0641 74.3796 46.3533C74.3751 43.7708 74.3729 41.1862 74.3277 38.6037C74.3142 37.8209 74.0434 37.1078 73.1587 36.8829C71.7279 36.5184 69.2906 38.3158 69.2229 39.7712C69.1529 41.2671 69.0559 42.7631 69.0288 44.2612C69.013 45.1498 68.4172 45.1745 67.8034 45.2015C67.0406 45.2353 67.1196 44.6864 67.1331 44.1892C67.2008 41.4179 67.3159 38.6487 67.3159 35.8773C67.3159 32.4356 66.3365 31.934 63.3462 33.6391C62.4074 34.1745 62.1637 34.7886 62.3284 35.8256C62.8385 39.0109 62.5541 42.1737 61.8816 45.314C61.7168 46.0878 61.2813 46.4118 60.5072 46.234C59.6406 46.0338 60.0536 45.3995 60.1506 44.9653C61.8929 37.0673 60.0649 29.9027 55.6957 23.2599C55.3933 22.7987 54.9984 22.3736 54.5696 22.0226C53.6263 21.2511 52.0871 21.2848 51.2386 22.1014C50.3675 22.9427 50.8843 23.8335 51.2815 24.6681C52.9695 28.1953 54.4522 31.7945 54.9126 35.7109C55.3775 39.652 55.0525 43.5054 53.1365 47.0754C50.5661 51.8601 44.238 53.5359 39.5868 50.7263C38.6412 50.1549 38.1289 49.4576 38.1538 48.2788C38.1921 46.4837 38.0657 44.6819 38.0025 42.8845C37.9529 41.4763 37.1517 40.608 35.915 40.0839C34.9107 39.6587 34.4617 39.8545 34.1412 40.9162C33.7959 42.0635 33.4957 43.2265 33.2204 44.3917C32.417 47.8199 32.6765 51.165 34.1028 54.3952C36.2784 59.3194 39.8576 63.0963 44.0236 66.3919C47.0184 68.7606 48.6455 71.8312 48.7336 75.6688C48.7832 77.8418 48.8599 80.0171 48.8441 82.1901C48.8374 83.1664 49.1781 83.4993 50.1576 83.4881C53.466 83.4431 56.7767 83.4723 60.0874 83.4723L60.0784 83.4701Z" fill="#7DFFAF"/>
<path d="M14.006 17.8881C14.006 15.2651 14.0264 12.6422 13.9925 10.0193C13.9835 9.2747 14.1618 8.76182 14.8546 8.3659C19.6616 5.61926 24.4414 2.82763 29.2529 0.0899805C29.526 -0.0652352 30.0653 -0.00449865 30.3632 0.161965C34.9874 2.78039 39.5867 5.4438 44.2086 8.06447C45.082 8.55936 45.4092 9.14198 45.3911 10.2015C45.3099 15.3709 45.328 20.5425 45.3618 25.7118C45.3663 26.5801 45.0752 27.0368 44.3124 27.4642C40.1644 29.7857 36.0255 32.1297 31.9407 34.5614C30.3632 35.5017 29.0949 35.5557 27.4475 34.5299C23.5342 32.0959 19.4788 29.8847 15.4459 27.6464C14.4552 27.0975 13.9767 26.5374 14.0467 25.3024C14.1866 22.837 14.0896 20.358 14.0896 17.8858H14.006V17.8881ZM43.3578 11.2543C42.8207 11.468 42.4325 11.5714 42.0917 11.7649C38.5125 13.8007 34.9468 15.8612 31.3585 17.8836C30.7063 18.2502 30.5392 18.7339 30.5505 19.4402C30.5934 22.5513 30.5844 25.6623 30.5979 28.7734C30.6002 29.428 30.5099 30.0129 29.6591 29.9859C28.8467 29.9589 28.9843 29.3268 28.9753 28.8251C28.9234 25.8648 28.8399 22.9044 28.8602 19.9441C28.8692 18.7406 28.4088 17.9938 27.3752 17.4247C23.9246 15.5283 20.5033 13.5825 17.064 11.6704C16.7932 11.5197 16.4659 11.468 16.1207 11.3577C16.0462 11.6277 15.974 11.7672 15.974 11.9066C15.9514 16.2909 15.9153 20.6774 15.9491 25.0617C15.9514 25.4531 16.3057 26.0043 16.6555 26.2067C20.7448 28.5687 24.8612 30.8902 28.9911 33.1847C29.3228 33.3691 29.9028 33.4321 30.2188 33.2702C31.7173 32.4986 33.1639 31.628 34.6263 30.7935C37.2577 29.2908 39.8711 27.7566 42.5295 26.3034C43.2923 25.8873 43.6196 25.4036 43.6038 24.5466C43.5293 20.6864 43.4954 16.8263 43.4413 12.9661C43.4345 12.4578 43.3916 11.9494 43.3578 11.2588V11.2543ZM29.8193 16.6553C30.0992 16.5428 30.3519 16.4776 30.5663 16.3494C34.1433 14.2439 37.7203 12.1361 41.2861 10.008C41.6133 9.81234 41.8548 9.47716 42.1346 9.20722C41.866 8.95977 41.6359 8.64934 41.3267 8.47388C37.7181 6.41783 34.105 4.36854 30.4715 2.35748C30.1421 2.17527 29.5598 2.09429 29.2597 2.26075C25.4615 4.36629 21.6881 6.51906 17.9216 8.68083C17.0121 9.20272 17.0369 9.55364 17.9283 10.062C21.546 12.1203 25.1636 14.1786 28.788 16.2257C29.1039 16.4056 29.465 16.5091 29.8171 16.6531L29.8193 16.6553Z" fill="#7DFFAF"/>
<path d="M4.54197 9.21847C4.32306 9.97205 4.16734 10.6851 3.91232 11.3645C1.54044 17.7328 1.80675 24.0112 4.77667 30.0984C7.25688 35.18 11.0731 39.0064 16.372 41.1682C18.2316 41.9262 20.2266 42.3581 22.1607 42.9363C22.4134 43.0105 22.7474 42.9858 22.9099 43.1432C23.2191 43.4447 23.4335 43.8451 23.6885 44.205C23.3207 44.4097 22.937 44.8169 22.5895 44.7876C19.7459 44.5447 17.0513 43.6696 14.5576 42.3424C5.21675 37.3642 0.696408 29.4303 0.54746 18.9791C0.504581 15.967 1.35088 13.0651 2.32129 10.2172C2.67561 9.17797 3.38424 8.98452 4.54197 9.21847Z" fill="#7DFFAF"/>
<path d="M6.18904 5.22335C5.01325 5.59227 3.88035 5.95669 2.74067 6.29636C2.31414 6.42233 1.84021 6.62029 1.43625 6.53931C1.07742 6.46507 0.718592 6.09615 0.506455 5.76323C0.445521 5.6665 0.829175 5.10862 1.10225 5.00515C2.88511 4.32804 4.68602 3.69593 6.49596 3.09307C7.11883 2.88611 7.51151 3.06382 7.67851 3.8354C7.99898 5.32907 8.4887 6.78675 8.84753 8.27367C8.98068 8.83155 9.40947 9.58738 8.4729 9.87307C7.63112 10.1295 7.37159 9.52215 7.19556 8.84505C6.89767 7.70455 6.56818 6.57305 6.19129 5.2211L6.18904 5.22335Z" fill="#7DFFAF"/>
</g>
<defs>
<clipPath id="clip0_82_296">
<rect width="83" height="94" fill="white" transform="translate(0.5)"/>
</clipPath>
</defs>
</svg>
