<svg width="32" height="33" viewBox="0 0 32 33" fill="none" xmlns="http://www.w3.org/2000/svg">
<circle cx="16" cy="16.5" r="16" fill="#F1FAF0"/>
<path d="M15.75 11C12.8555 11 10.5 13.3555 10.5 16.25C10.5 19.1445 12.8555 21.5 15.75 21.5C18.6445 21.5 21 19.1445 21 16.25C21 13.3555 18.6445 11 15.75 11ZM15.75 20C13.6787 20 12 18.3213 12 16.25C12 14.1787 13.6787 12.5 15.75 12.5C17.8213 12.5 19.5 14.1787 19.5 16.25C19.5 18.3213 17.8213 20 15.75 20ZM15.75 9.5C16.164 9.5 16.5 9.16405 16.5 8.75V7.25C16.5 6.83595 16.164 6.5 15.75 6.5C15.336 6.5 15 6.83595 15 7.25V8.75C15 9.16405 15.336 9.5 15.75 9.5ZM15.75 23C15.336 23 15 23.336 15 23.75V25.25C15 25.664 15.336 26 15.75 26C16.164 26 16.5 25.664 16.5 25.25V23.75C16.5 23.336 16.164 23 15.75 23ZM21.583 11.4766L22.6436 10.416C22.9365 10.1231 22.9365 9.64845 22.6436 9.35548C22.3506 9.06252 21.876 9.06252 21.583 9.35548L20.5225 10.416C20.2295 10.709 20.2295 11.1836 20.5225 11.4766C20.8155 11.7695 21.2901 11.7695 21.583 11.4766ZM9.91697 21.0235L8.85642 22.084C8.56345 22.3769 8.56345 22.8515 8.85642 23.1445C9.14939 23.4375 9.624 23.4375 9.91697 23.1445L10.9775 22.084C11.2705 21.7901 11.2705 21.3164 10.9775 21.0235C10.6846 20.7305 10.2099 20.7295 9.91697 21.0235ZM9 16.25C9 15.836 8.66405 15.5 8.25 15.5H6.75C6.33595 15.5 6 15.836 6 16.25C6 16.664 6.33595 17 6.75 17H8.25C8.66405 17 9 16.664 9 16.25ZM24.75 15.5H23.25C22.836 15.5 22.5 15.836 22.5 16.25C22.5 16.664 22.836 17 23.25 17H24.75C25.164 17 25.5 16.664 25.5 16.25C25.5 15.836 25.164 15.5 24.75 15.5ZM9.91598 11.4766C10.209 11.7695 10.6836 11.7695 10.9765 11.4766C11.2695 11.1836 11.2695 10.709 10.9765 10.416L9.91598 9.35548C9.62302 9.06252 9.14845 9.06252 8.85544 9.35548C8.56247 9.64845 8.56247 10.1231 8.85544 10.416L9.91598 11.4766ZM21.584 21.0224C21.2901 20.7295 20.8164 20.7295 20.5235 21.0224C20.2305 21.3154 20.2295 21.79 20.5235 22.083L21.584 23.1435C21.8769 23.4365 22.3515 23.4365 22.6445 23.1435C22.9375 22.8506 22.9375 22.376 22.6445 22.083L21.584 21.0224Z" fill="#060F05"/>
</svg>
