<svg width="16" height="17" viewBox="0 0 16 17" fill="none" xmlns="http://www.w3.org/2000/svg">
<circle cx="8" cy="8.5" r="8" fill="#060F05"/>
<path d="M7.875 5.75C6.42773 5.75 5.25 6.92773 5.25 8.375C5.25 9.82227 6.42773 11 7.875 11C9.32227 11 10.5 9.82227 10.5 8.375C10.5 6.92773 9.32227 5.75 7.875 5.75ZM7.875 10.25C6.83934 10.25 6 9.41066 6 8.375C6 7.33934 6.83934 6.5 7.875 6.5C8.91066 6.5 9.75 7.33934 9.75 8.375C9.75 9.41066 8.91066 10.25 7.875 10.25ZM7.875 5C8.08202 5 8.25 4.83202 8.25 4.625V3.875C8.25 3.66798 8.08202 3.5 7.875 3.5C7.66798 3.5 7.5 3.66798 7.5 3.875V4.625C7.5 4.83202 7.66798 5 7.875 5ZM7.875 11.75C7.66798 11.75 7.5 11.918 7.5 12.125V12.875C7.5 13.082 7.66798 13.25 7.875 13.25C8.08202 13.25 8.25 13.082 8.25 12.875V12.125C8.25 11.918 8.08202 11.75 7.875 11.75ZM10.7915 5.98829L11.3218 5.45802C11.4683 5.31153 11.4683 5.07423 11.3218 4.92774C11.1753 4.78126 10.938 4.78126 10.7915 4.92774L10.2612 5.45802C10.1148 5.6045 10.1148 5.8418 10.2612 5.98829C10.4077 6.13477 10.645 6.13477 10.7915 5.98829ZM4.95848 10.7617L4.42821 11.292C4.28173 11.4385 4.28173 11.6758 4.42821 11.8223C4.5747 11.9687 4.812 11.9687 4.95848 11.8223L5.48876 11.292C5.63524 11.145 5.63524 10.9082 5.48876 10.7617C5.3423 10.6152 5.10497 10.6147 4.95848 10.7617ZM4.5 8.375C4.5 8.16798 4.33202 8 4.125 8H3.375C3.16798 8 3 8.16798 3 8.375C3 8.58202 3.16798 8.75 3.375 8.75H4.125C4.33202 8.75 4.5 8.58202 4.5 8.375ZM12.375 8H11.625C11.418 8 11.25 8.16798 11.25 8.375C11.25 8.58202 11.418 8.75 11.625 8.75H12.375C12.582 8.75 12.75 8.58202 12.75 8.375C12.75 8.16798 12.582 8 12.375 8ZM4.95799 5.98829C5.1045 6.13477 5.3418 6.13477 5.48827 5.98829C5.63477 5.8418 5.63477 5.6045 5.48827 5.45802L4.95799 4.92774C4.81151 4.78126 4.57423 4.78126 4.42772 4.92774C4.28123 5.07423 4.28123 5.31153 4.42772 5.45802L4.95799 5.98829ZM10.792 10.7612C10.645 10.6147 10.4082 10.6147 10.2617 10.7612C10.1152 10.9077 10.1148 11.145 10.2617 11.2915L10.792 11.8218C10.9385 11.9683 11.1758 11.9683 11.3223 11.8218C11.4687 11.6753 11.4687 11.438 11.3223 11.2915L10.792 10.7612Z" fill="#F1FAF0"/>
</svg>
