<?xml version="1.0" encoding="UTF-8"?><svg id="Layer_2" xmlns="http://www.w3.org/2000/svg" viewBox="0 0 512.18 512.18"><defs><style>.cls-1{fill:#022648;}.cls-1,.cls-2{stroke-width:0px;}.cls-2{fill:#7dffaf;}</style></defs><g id="Layer_1-2"><circle class="cls-1" cx="256.09" cy="256.09" r="256.09"/><path class="cls-2" d="M360.78,243.56l-91.74-91.74c-3.03-3.95-7.79-6.51-13.16-6.51-4.13,0-7.9,1.52-10.81,4.02l-.11-.11-93.57,93.57c-6.18,6.18-6.18,16.2,0,22.38h0c6.18,6.18,16.2,6.18,22.38,0l65.51-65.51v168c0,9.16,7.43,16.59,16.59,16.59s16.59-7.43,16.59-16.59v-167.64l65.92,65.92c6.18,6.18,16.2,6.18,22.38,0h0c6.18-6.18,6.18-16.2,0-22.38Z"/></g></svg>