<svg width="32" height="32" viewBox="0 0 32 32" fill="none" xmlns="http://www.w3.org/2000/svg">
<circle cx="16" cy="16" r="16" fill="#022648"/>
<path d="M17.6667 16.0002L14.75 17.6668V14.3335L17.6667 16.0002Z" fill="#F1FAF0" stroke="#F1FAF0" stroke-width="1.5" stroke-linecap="round" stroke-linejoin="round"/>
<path d="M7.66699 16.5902V15.4102C7.66699 12.9977 7.66699 11.791 8.42116 11.0152C9.17616 10.2385 10.3645 10.2052 12.7403 10.1377C13.8653 10.106 15.0153 10.0835 16.0003 10.0835C16.9853 10.0835 18.1345 10.106 19.2603 10.1377C21.6362 10.2052 22.8245 10.2385 23.5787 11.0152C24.3328 11.7918 24.3337 12.9985 24.3337 15.4102V16.5893C24.3337 19.0027 24.3337 20.2085 23.5795 20.9852C22.8245 21.761 21.637 21.7952 19.2603 21.8618C18.1353 21.8943 16.9853 21.9168 16.0003 21.9168C15.0153 21.9168 13.8662 21.8943 12.7403 21.8618C10.3645 21.7952 9.17616 21.7618 8.42116 20.9852C7.66616 20.2085 7.66699 19.0018 7.66699 16.5902Z" stroke="#F1FAF0"/>
</svg>
